<?xml version="1.0" encoding="UTF-8"?>
<svg version="1.1" xmlns="http://www.w3.org/2000/svg" width="512" height="512">
<path d="M0 0 C1.2287101 -0.00445784 2.4574202 -0.00891569 3.72336394 -0.01350862 C5.08383279 -0.01341933 6.44430164 -0.01322949 7.80477047 -0.01294994 C9.25246416 -0.01625057 10.70015694 -0.01997656 12.14784855 -0.02409142 C16.12673982 -0.03409696 20.10561601 -0.03782588 24.08451807 -0.04048073 C28.37577651 -0.04438807 32.66702306 -0.0539661 36.95827389 -0.0626936 C47.32192655 -0.0824457 57.68558016 -0.09252256 68.04924694 -0.10142139 C72.93155077 -0.10580628 77.81385352 -0.11117256 82.6961565 -0.11641026 C98.92916196 -0.13342116 115.16216675 -0.14791497 131.39517975 -0.155159 C135.60665608 -0.15706884 139.81813241 -0.15898918 144.02960873 -0.16094494 C145.59969048 -0.16167055 145.59969048 -0.16167055 147.20149105 -0.16241082 C164.15479909 -0.17070979 181.10803654 -0.19604508 198.06131376 -0.22852562 C215.47276248 -0.2616116 232.88417535 -0.27960914 250.29565567 -0.28280324 C260.06917063 -0.28496689 269.84258264 -0.29369437 279.61606693 -0.31926441 C287.94017293 -0.34099241 296.26415097 -0.34901149 304.58828212 -0.33929763 C308.83283706 -0.33475904 313.0771281 -0.33661336 317.32164669 -0.35605907 C321.21366466 -0.3737353 325.10522708 -0.3726573 328.99725019 -0.35716178 C330.3990602 -0.35479244 331.80090213 -0.35907408 333.20266349 -0.37099043 C347.89186086 -0.48804556 358.21904338 2.83663007 368.8545599 12.97797108 C376.93095644 21.4538453 380.06679902 31.29989614 380.07486629 42.80109119 C380.07924855 43.56545978 380.0836308 44.32982837 380.08814585 45.11735964 C380.10148313 47.67441499 380.10770111 50.23143592 380.11383724 52.78851795 C380.12174183 54.62348554 380.130011 56.45845159 380.13861752 58.29341602 C380.16478304 64.31325271 380.18013359 70.33309619 380.19440365 76.35297108 C380.19976443 78.42596408 380.20514194 80.49895704 380.210536 82.57194996 C380.23215124 91.19167192 380.25089016 99.81139204 380.26215839 108.43113422 C380.27841607 120.78555081 380.31165347 133.13965388 380.36855924 145.49395227 C380.40721586 154.1819575 380.42678565 162.86987868 380.43207896 171.55796766 C380.43573651 176.74770756 380.44780198 181.93711263 380.48018169 187.12675953 C380.51018921 192.00568832 380.51660039 196.88407834 380.50479794 201.76307964 C380.50457663 203.5541678 380.5129288 205.34528047 380.53045177 207.13628292 C380.55306721 209.58062491 380.54488586 212.02300014 380.52896786 214.46735096 C380.54284994 215.17698349 380.55673203 215.88661601 380.57103479 216.61775255 C380.50882159 220.49148569 380.00324519 222.03372241 377.51406956 225.07409382 C374.9635403 227.10039745 374.03401562 227.80404581 370.85846615 227.69672108 C366.92096615 227.13422108 366.92096615 227.13422108 364.48346615 225.32172108 C343.71037617 196.2393951 361.92096615 153.87359644 361.92096615 118.13422108 C234.87096615 118.13422108 107.82096615 118.13422108 -23.07903385 118.13422108 C-22.95528385 152.86672108 -22.83153385 187.59922108 -22.70403385 223.38422108 C-22.67003483 234.36348866 -22.6360358 245.34275623 -22.60100651 256.65472889 C-22.56111164 266.47025576 -22.56111164 266.47025576 -22.51857853 276.28577137 C-22.49965978 280.66809273 -22.48633398 285.05039338 -22.4763422 289.43274403 C-22.46342937 295.01680294 -22.44108216 300.60074811 -22.41180015 306.18474436 C-22.4026597 308.237759 -22.39687933 310.2907919 -22.39477944 312.34382582 C-22.39147501 315.11029105 -22.3760539 317.87642825 -22.35750675 320.64282703 C-22.35944223 321.45193405 -22.36137772 322.26104107 -22.36337185 323.09466648 C-22.33719586 328.43537709 -22.33719586 328.43537709 -20.07903385 333.13422108 C-17.00217775 334.67264913 -13.76997655 334.28070296 -10.39328861 334.27898121 C-9.59064778 334.28250805 -8.78800694 334.2860349 -7.96104366 334.28966862 C-5.25647151 334.30039077 -2.55193453 334.30404269 0.1526556 334.30780506 C2.08570156 334.31410765 4.01874606 334.32087312 5.9517889 334.32806873 C10.12225511 334.34275938 14.29271563 334.35447571 18.46319675 334.36401653 C25.05552601 334.3794401 31.64780684 334.40338911 38.24010372 334.42891407 C56.98875529 334.50019352 75.73743469 334.55991262 94.4861517 334.61102772 C104.83492468 334.63931738 115.18364959 334.67469183 125.53237218 334.71768147 C132.08749163 334.74448126 138.64255667 334.76236976 145.19772017 334.77371871 C149.27549177 334.78283699 153.35319723 334.80019535 157.43093014 334.81989765 C159.3235759 334.82737872 161.21623862 334.83145455 163.10889912 334.83189297 C165.69082096 334.83297408 168.27240568 334.84620927 170.85426998 334.8624773 C171.60485835 334.85986045 172.35544672 334.85724359 173.12878019 334.85454744 C178.11363178 334.90367354 182.00604578 335.35136418 185.73346615 338.82172108 C187.45658644 342.17727111 187.44304704 344.41439473 186.92096615 348.13422108 C184.18587229 351.77514555 182.70021472 353.00441371 178.16054058 353.76063347 C176.66511836 353.7867407 175.16906371 353.78542232 173.67359066 353.76241016 C172.8467075 353.76950455 172.01982434 353.77659894 171.16788411 353.78390831 C168.39858107 353.80150276 165.63067892 353.78337631 162.86139584 353.76532459 C160.87527992 353.77046302 158.88916855 353.77774372 156.90306759 353.78700733 C151.50813206 353.805544 146.11368988 353.79256633 140.7187748 353.77291703 C135.07085432 353.7565389 129.42296531 353.7653427 123.77503109 353.77043629 C114.28567277 353.77495965 104.79651139 353.75907593 95.30719662 353.73114491 C84.34574664 353.69912892 73.38465261 353.69909372 62.42317748 353.71635967 C51.87311176 353.7322439 41.32317617 353.72547657 30.77311611 353.70842266 C26.28686961 353.70156079 21.80072769 353.70257591 17.31448269 353.70996761 C12.02515168 353.71764877 6.73622376 353.70544429 1.4469614 353.67811871 C-0.4907693 353.67125162 -2.42853777 353.67111885 -4.3662672 353.67833424 C-23.74179174 353.74214797 -23.74179174 353.74214797 -32.38372135 347.45843983 C-32.90192448 346.91832264 -33.4201276 346.37820545 -33.95403385 345.82172108 C-34.48770573 345.28933826 -35.0213776 344.75695545 -35.57122135 344.20843983 C-40.52594324 337.39248821 -40.50954229 331.07628017 -40.46671391 322.90137196 C-40.47479221 321.05419311 -40.47479221 321.05419311 -40.48303372 319.16969752 C-40.4948447 315.76330436 -40.49325159 312.35740185 -40.4858669 308.95102835 C-40.48113121 305.27262869 -40.49364879 301.59428119 -40.50388432 297.91589832 C-40.52107116 290.71348658 -40.52191239 283.51116209 -40.51667141 276.30873516 C-40.51262743 270.4522938 -40.51407599 264.59587819 -40.51941967 258.73943806 C-40.52016809 257.90540334 -40.52091651 257.07136863 -40.52168762 256.21206014 C-40.52321913 254.51759991 -40.52475747 252.8231397 -40.52630258 251.12867948 C-40.54002779 235.24108492 -40.53459031 219.35353961 -40.52311737 203.46594617 C-40.5131901 188.94348841 -40.52611685 174.42115815 -40.55005156 159.89872006 C-40.57445903 144.97661832 -40.58404607 130.05457593 -40.57739884 115.13245463 C-40.57390961 106.75908658 -40.57611876 98.3858165 -40.59364986 90.01246357 C-40.60839268 82.8825413 -40.60898047 75.75278597 -40.59157895 68.6228669 C-40.58308264 64.98802268 -40.58088536 61.35347642 -40.59623051 57.71864796 C-40.61269085 53.77061543 -40.59789311 49.82303961 -40.5802393 45.87500477 C-40.5898443 44.73675448 -40.59944931 43.59850419 -40.60934538 42.42576146 C-40.49641832 30.11887021 -36.33970581 20.2592172 -28.07903385 11.13422108 C-19.69901062 3.94759708 -11.08872555 0.01869467 0 0 Z M-17.32903385 26.32172108 C-31.60450811 46.11271949 -23.07903385 83.21402857 -23.07903385 100.13422108 C103.97096615 100.13422108 231.02096615 100.13422108 361.92096615 100.13422108 C364.94917663 61.82918761 364.94917663 61.82918761 356.92096615 26.13422108 C349.15553513 19.33946893 342.26969104 17.01273934 331.94197178 17.00558662 C330.76105477 17.00236218 329.58013776 16.99913773 328.36343539 16.99581558 C327.07511982 16.99736418 325.78680425 16.99891278 324.45944881 17.00050831 C323.06991367 16.99863927 321.68037906 16.99633819 320.29084527 16.99364299 C316.47750988 16.98753018 312.66419643 16.98765797 308.85085726 16.98883736 C304.7362484 16.9890415 300.62164656 16.98352141 296.50704098 16.97877979 C288.44792651 16.97047573 280.38881935 16.96772507 272.32970096 16.96716741 C265.7790911 16.96669218 259.22848366 16.96463704 252.67787457 16.96146679 C234.10510046 16.95266119 215.53233214 16.94804731 196.95955594 16.94879726 C195.45787098 16.9488572 195.45787098 16.9488572 193.92584896 16.94891834 C192.92350328 16.94895922 191.92115759 16.9490001 190.88843779 16.94904222 C174.64059956 16.94944876 158.3927845 16.93987714 142.14495297 16.92577998 C125.46121965 16.91141882 108.77749764 16.90450964 92.09375799 16.90537375 C82.72730905 16.90570579 73.3608844 16.90295556 63.99444103 16.8921957 C56.02050935 16.88309418 48.04661297 16.88091262 40.07267834 16.88770512 C36.00488559 16.89097197 31.9371606 16.89102104 27.86937428 16.88235188 C24.14363541 16.87449335 20.41801812 16.87591166 16.69228224 16.88463601 C14.71017911 16.88689875 12.72807223 16.87933729 10.74598372 16.87139636 C-0.02460806 16.9131554 -9.6032419 18.10117397 -17.32903385 26.32172108 Z " fill="#000000" transform="translate(40.079033851623535,3.865778923034668)"/>
<path d="M0 0 C7.106118 5.53861573 13.36556759 12.23608378 19.70218277 18.62701797 C21.24011144 20.17799142 22.7813886 21.72557225 24.32345581 23.27243042 C27.59350781 26.55376984 30.8595603 29.83907145 34.125 33.125 C37.92264621 36.94641821 41.72200724 40.7661003 45.52563095 44.58156967 C47.02978187 46.09210971 48.53084392 47.60567079 50.0317688 49.11941528 C54.68778149 53.79199903 59.37764897 58.34676131 64.39659119 62.62954712 C78.98799774 75.10099856 89.34298563 89.68408178 95 108 C95.24878906 108.79664063 95.49757813 109.59328125 95.75390625 110.4140625 C100.70003617 129.99105225 96.21629271 150.81649928 86.25462341 167.97175598 C80.0094901 178.06773709 71.1603459 186.16709968 62.828125 194.5078125 C61.33976198 196.00261458 59.85154431 197.4975614 58.36346436 198.99264526 C55.25366156 202.11437388 52.13980333 205.2319918 49.0234375 208.34716797 C45.05154468 212.31885751 41.09359909 216.30413693 37.13905716 220.29309273 C34.07281555 223.38167985 30.99741639 226.46102432 27.91945648 229.53792953 C26.45715771 231.00257152 24.99806108 232.47041847 23.54239655 233.94165421 C15.87995948 241.678372 8.66464477 248.79761642 -1 254 C-2.14210938 254.62390625 -3.28421875 255.2478125 -4.4609375 255.890625 C-22.60522011 264.35471394 -43.91875862 266.39281088 -63.08349609 259.72314453 C-66.51886834 258.42689325 -69.86827283 257.00778367 -73.1875 255.4375 C-73.78030762 255.16421875 -74.37311523 254.8909375 -74.98388672 254.609375 C-87.13503624 248.39113492 -97.15402149 237.15183901 -106.6875 227.578125 C-107.84492501 226.42205269 -109.00264629 225.26627694 -110.16064453 224.11077881 C-112.56038104 221.71395805 -114.95654661 219.31364184 -117.35009766 216.91064453 C-120.4037943 213.84547745 -123.46649198 210.78948546 -126.53187561 207.73601151 C-128.91364699 205.36148941 -131.29060759 202.98219744 -133.66616821 200.60146332 C-134.79372847 199.47257906 -135.92274806 198.3451503 -137.05331421 197.21927643 C-147.37121671 186.93487737 -154.97805786 178.77003476 -155.4375 163.5625 C-155.2071244 153.54616971 -152.05990857 145.23058768 -145 138 C-140.93282681 134.8169949 -136.64294415 132.24794129 -132 130 C-132.96099609 129.05640625 -132.96099609 129.05640625 -133.94140625 128.09375 C-134.80636719 127.2378125 -135.67132813 126.381875 -136.5625 125.5 C-137.40941406 124.6646875 -138.25632812 123.829375 -139.12890625 122.96875 C-141.20780194 120.86818033 -143.14027674 118.68451401 -145.0546875 116.43359375 C-148.19141885 112.81274353 -151.52791627 109.42399615 -154.94140625 106.06640625 C-155.47611038 105.53957245 -156.01081451 105.01273865 -156.5617218 104.46994019 C-158.78637551 102.28165825 -161.01366722 100.09625278 -163.25073242 97.9206543 C-181.73650751 79.9139108 -181.73650751 79.9139108 -182.375 65.6875 C-182.17057269 56.90915089 -178.91040643 50.10737264 -172.93359375 43.7578125 C-165.29256936 36.81142669 -158.69894833 35.62131919 -148.54296875 35.7265625 C-136.13429656 36.6842329 -128.19273408 46.61116324 -120 55 C-119.505 54.319375 -119.01 53.63875 -118.5 52.9375 C-111.77053174 45.03037479 -104.69468379 39.81814269 -94.09765625 38.69140625 C-88.70232447 38.56558919 -84.07764252 39.19461599 -79 41 C-78.74347656 40.443125 -78.48695313 39.88625 -78.22265625 39.3125 C-74.36202811 31.61724122 -68.94268039 25.16381096 -60.6875 22.0625 C-55.24689303 20.55765126 -49.61621443 20.27558413 -44 20 C-43.8040625 19.3709375 -43.608125 18.741875 -43.40625 18.09375 C-40.4429919 9.61270094 -35.79390857 3.7495345 -27.75 -0.4375 C-18.90778497 -4.51149577 -8.76575611 -4.1296925 0 0 Z M-24 19 C-26.42902019 22.64353029 -26.76331692 24.84955164 -26.57226562 29.16601562 C-25.88839307 32.55270189 -24.88290297 33.78174753 -22.51953125 36.27734375 C-21.29520386 37.57466431 -21.29520386 37.57466431 -20.04614258 38.89819336 C-19.03349542 39.93480647 -18.01783522 40.96848051 -17 42 C-16.39481537 42.61392609 -15.78963074 43.22785217 -15.16610718 43.86038208 C-10.14207636 48.93851534 -5.07391388 53.97178725 0 59 C3.0028553 61.97630933 6.00240271 64.95589625 9 67.9375 C10.03265991 68.9577124 10.03265991 68.9577124 11.08618164 69.99853516 C12.03352173 70.94092041 12.03352173 70.94092041 13 71.90234375 C13.556875 72.45398193 14.11375 73.00562012 14.6875 73.57397461 C16.83676893 75.90914571 17.01154181 77.12465159 17.3125 80.375 C17 84 17 84 15.5 86.4375 C12.73610311 88.16493555 10.61880271 88.74773279 7.35287476 88.66592407 C1.87246997 87.11482856 -1.84883 82.05562284 -5.66796875 78.04296875 C-6.67397005 77.01694016 -7.68192376 75.99282258 -8.69172668 74.97053528 C-11.33953442 72.28096452 -13.96329655 69.56915624 -16.58172607 66.85101318 C-20.77616462 62.50575405 -25.00851176 58.19732737 -29.23674965 53.88500404 C-30.70600974 52.38051424 -32.1663829 50.86784091 -33.62528992 49.35331726 C-34.52004532 48.43258926 -35.41480072 47.51186127 -36.33666992 46.56323242 C-37.11862228 45.7527092 -37.90057465 44.94218597 -38.70622253 44.10710144 C-42.10464813 40.98525218 -45.26799908 38.56775805 -50 38.625 C-53.73113242 38.78661214 -56.06816095 39.57076193 -59 42 C-61.33772514 44.90200363 -61.96474659 46.72300894 -62.4375 50.4375 C-61.40067459 58.8802212 -53.7768659 64.46584551 -48.01953125 70.140625 C-47.04064196 71.11323516 -46.06227184 72.0863681 -45.08439636 73.05999756 C-42.52280933 75.6083498 -39.95569513 78.15105287 -37.38690186 80.69213867 C-33.26401347 84.77171235 -29.14801188 88.85820781 -25.03513145 92.94786835 C-23.59885005 94.37392592 -22.15920846 95.79652592 -20.7191925 97.21881104 C-19.85126572 98.08020691 -18.98333893 98.94160278 -18.08911133 99.82910156 C-17.32174149 100.58821838 -16.55437164 101.34733521 -15.76374817 102.12945557 C-12.81759126 105.25400447 -12.64875953 107.74427394 -12.7265625 112.0234375 C-13 114 -13 114 -14.5625 116.5 C-18.10616452 118.68071663 -19.89099694 118.75331723 -24 118 C-30.90559122 113.20930789 -36.68795648 106.43154647 -42.60009384 100.47507095 C-44.33791017 98.72434299 -46.07896126 96.97688835 -47.8208313 95.23019409 C-51.50839741 91.53128836 -55.19197315 87.82842479 -58.875 84.125 C-63.16621507 79.81016637 -67.4590595 75.49697954 -71.75610733 71.18795395 C-73.47209862 69.46547731 -75.18505587 67.74002167 -76.8979187 66.01443481 C-77.94335476 64.9653686 -78.98893014 63.91644119 -80.03466797 62.86767578 C-81.40412064 61.49036789 -81.40412064 61.49036789 -82.80123901 60.0852356 C-86.33887508 56.73025309 -88.94562809 56.59902479 -93.67578125 56.65234375 C-97.69373153 57.25334808 -99.28247364 59.01734911 -102 62 C-103.67668433 64.84307343 -104 66.5218417 -104 69.8125 C-100.97955574 79.44016607 -91.63757371 86.60512792 -84.63671875 93.5234375 C-83.43648432 94.71739107 -82.23677055 95.91186824 -81.03755188 97.10684204 C-77.90061043 100.23056541 -74.75812484 103.34864455 -71.61395264 106.46508789 C-66.56333335 111.47234255 -61.51965911 116.4865715 -56.47907448 121.50392532 C-54.71926737 123.2535054 -52.95609403 124.99963998 -51.19255066 126.74545288 C-50.12003445 127.81114498 -49.04762553 128.87694508 -47.9753418 129.94287109 C-47.48342346 130.42805206 -46.99150513 130.91323303 -46.48468018 131.41311646 C-42.1063854 135.77656788 -42.1063854 135.77656788 -41.75 139.875 C-42.03378515 143.42231438 -42.32323893 144.66862746 -45 147 C-48.60898185 148.00249496 -50.87731406 148.53442841 -54.31936646 146.8959198 C-57.73820491 144.47789308 -60.5737497 141.69727264 -63.51513672 138.7277832 C-64.14835846 138.09645981 -64.7815802 137.46513641 -65.43399048 136.81468201 C-67.52080352 134.73156551 -69.60033963 132.64134739 -71.6796875 130.55078125 C-73.13514297 129.09413264 -74.59096944 127.63785463 -76.04714966 126.18193054 C-79.09818135 123.12933561 -82.14582814 120.07341457 -85.19091797 117.01489258 C-89.07820991 113.11066409 -92.97199815 109.21299677 -96.8681469 105.31760883 C-99.87631117 102.30917138 -102.88185218 99.29812461 -105.88653946 96.28621483 C-107.32035403 94.84923554 -108.75475966 93.41284574 -110.189785 91.97707558 C-123.73837957 78.41375247 -123.73837957 78.41375247 -128.77711487 72.4418335 C-130.43053424 70.49238185 -132.22502181 68.71255855 -134.0625 66.9375 C-137.12961378 63.92971144 -139.91434547 60.81421014 -142.578125 57.4453125 C-145.4381785 54.53811526 -147.83522963 54.01594552 -151.875 53.625 C-156.18785966 53.73764932 -158.70279071 55.17382061 -162 58 C-164.59036348 61.41457004 -164.43108741 64.83282171 -164 69 C-160.92899705 74.4699798 -156.66492095 78.53401016 -152.1875 82.875 C-148.255295 86.7075153 -144.36108356 90.51072297 -140.80078125 94.6953125 C-135.55314432 100.79555057 -129.71940279 106.34769635 -124 112 C-121.70529026 114.26778857 -119.41414624 116.53909708 -117.125 118.8125 C-116.61437012 119.31483154 -116.10374023 119.81716309 -115.57763672 120.3347168 C-112.79116425 123.102685 -110.1489468 125.94534445 -107.58154297 128.91845703 C-104.08190354 132.95970017 -100.37371922 136.73818736 -96.5703125 140.4921875 C-95.89451141 141.16420197 -95.21871033 141.83621643 -94.52243042 142.52859497 C-92.39239759 144.64654199 -90.2591181 146.76117003 -88.125 148.875 C-85.29141798 151.68204089 -82.46113492 154.49234838 -79.6328125 157.3046875 C-78.65636276 158.26868973 -78.65636276 158.26868973 -77.66018677 159.25216675 C-77.06221283 159.84683746 -76.46423889 160.44150818 -75.84814453 161.05419922 C-75.05707809 161.83741043 -75.05707809 161.83741043 -74.25003052 162.63644409 C-72.14162708 164.93632872 -71.98328534 166.18051829 -71.6875 169.375 C-72 173 -72 173 -73.5 175.4375 C-76.28499301 177.17812063 -78.45866014 177.89124922 -81.765625 177.66796875 C-87.69869286 175.89427189 -91.88395862 170.18571349 -96.07617188 165.85546875 C-97.62436768 164.25827102 -99.17675741 162.66512987 -100.73291016 161.07568359 C-102.30341077 159.46671389 -103.86091444 157.84493385 -105.40380859 156.20947266 C-110.00869421 151.46739877 -113.53292163 148.61000487 -120 147 C-124.76205796 146.94139006 -128.39017648 148.61603704 -132.375 151.125 C-136.041091 155.14024253 -138.0345709 158.70424077 -137.9765625 164.234375 C-136.24120982 175.41775892 -124.52456769 183.66763798 -116.890625 191.34765625 C-116.31501579 191.92734098 -115.73940659 192.50702572 -115.14635468 193.10427666 C-112.10213849 196.16921803 -109.05475181 199.23096731 -106.00488281 202.2902832 C-102.88216052 205.42407538 -99.77130408 208.56937841 -96.66293716 211.71740055 C-94.24506285 214.1615881 -91.8181833 216.59668726 -89.38890839 219.02953911 C-88.23904992 220.18422103 -87.09252611 221.34223498 -85.94965363 222.50383186 C-73.38905209 235.25743907 -59.34323654 245.13394124 -40.80859375 246.0703125 C-23.77687512 245.64392733 -9.41285616 240.21869479 3.00439453 228.58447266 C3.56897432 228.05904184 4.13355412 227.53361103 4.71524239 226.99225807 C10.94607402 221.1635183 17.01196599 215.17100046 23.0546875 209.1484375 C23.64081944 208.56513294 24.22695137 207.98182838 24.83084488 207.38084793 C27.92145249 204.30504614 31.00932159 201.22652819 34.09472656 198.14550781 C37.25139743 194.99435399 40.41727842 191.85262256 43.58530998 188.71289635 C46.05269491 186.26423672 48.51324756 183.80879558 50.97204971 181.35152054 C52.13599319 180.19057201 53.30239871 179.03208571 54.47146225 177.87629318 C62.59960796 169.83402198 70.54649241 161.69829841 74.8125 150.875 C75.19019531 149.94429687 75.56789063 149.01359375 75.95703125 148.0546875 C81.61898867 131.47172607 80.13633963 115.12528047 72.4375 99.4375 C65.10616069 86.99612852 52.99771054 76.83516554 42.84765625 66.6796875 C41.41557397 65.24438376 39.98356339 63.80900847 38.55162048 62.37356567 C35.57580434 59.39181262 32.59798101 56.41208116 29.61889648 53.43359375 C25.80187704 49.61667682 21.99183824 45.79287041 18.18343449 41.96735954 C15.24007191 39.0128992 12.29219671 36.06297391 9.34301567 33.11432266 C7.93518871 31.70531668 6.52898062 30.29469123 5.12443733 28.88241196 C3.16977599 26.91797534 1.20890809 24.95994885 -0.75366211 23.00341797 C-1.32979752 22.42166306 -1.90593292 21.83990814 -2.49952698 21.24052429 C-6.40112751 17.36942618 -8.9052265 15.23275261 -14.375 14.625 C-18.67080432 15.06939355 -20.67783589 16.29591294 -24 19 Z " fill="#000000" transform="translate(408,245)"/>
<path d="M0 0 C1.65273381 -0.00407712 3.30546488 -0.00942533 4.95819092 -0.01593018 C9.40038638 -0.02947415 13.84237016 -0.02435922 18.28456879 -0.01479292 C22.96201595 -0.00712863 27.63944655 -0.01426053 32.31689453 -0.01895142 C40.16767589 -0.02438944 48.01837222 -0.01726891 55.86914062 -0.00292969 C64.90953703 0.01339303 73.94973035 0.00810314 82.99012184 -0.0084089 C90.79103632 -0.02207973 98.59189013 -0.02391623 106.39281273 -0.0160929 C111.03487851 -0.01144699 115.67684925 -0.01070566 120.31890869 -0.02070236 C124.68577701 -0.02945177 129.05238682 -0.02320672 133.4192276 -0.00601959 C135.0093671 -0.00209688 136.59952886 -0.00311512 138.18965912 -0.00980759 C164.07590061 -0.10860267 187.29013757 7.91019637 205.9296875 26.38818359 C221.89288628 43.21589503 228.58071799 65.02931533 228.40722656 87.84155273 C228.08492223 98.66138162 226.95688452 110.70522773 219.9296875 119.38818359 C217.28375185 120.61383569 214.81991614 120.6519743 211.9296875 120.38818359 C208.93172915 119.04867029 207.40188875 118.33258609 205.9296875 115.38818359 C205.57831978 110.55687747 205.98934787 106.78251134 207.3671875 102.13818359 C212.29463667 85.03289577 209.40627474 68.45735665 201.62109375 52.74755859 C192.7321527 36.73235602 179.09831532 26.98697426 162.0859375 21.26318359 C156.63082138 19.75087417 151.50978591 19.26068057 145.85523987 19.24101257 C145.16649291 19.23733589 144.47774594 19.2336592 143.76812786 19.22987109 C141.47244535 19.21890505 139.17680821 19.21500248 136.88110352 19.21118164 C135.22969929 19.20491144 133.57829646 19.19826415 131.92689514 19.19126892 C126.51247123 19.17028523 121.09804723 19.15986906 115.68359375 19.14990234 C113.81358259 19.14585209 111.94357158 19.14173509 110.07356071 19.13755226 C101.28229723 19.11850987 92.49104206 19.10427914 83.69976193 19.09594029 C73.58287246 19.08618346 63.4662027 19.05990061 53.34939057 19.0194394 C45.51045702 18.98917466 37.67158607 18.97446148 29.83259529 18.97115928 C25.16014871 18.96881983 20.48793707 18.96000503 15.81555367 18.9346981 C11.41185174 18.91123152 7.00853633 18.90725789 2.60478783 18.91745949 C1.00012544 18.91795054 -0.60455721 18.91175924 -2.20915985 18.89790344 C-20.66645903 18.74761191 -37.91786228 22.78997193 -51.58203125 36.10302734 C-53.0703125 37.38818359 -53.0703125 37.38818359 -55.0703125 37.38818359 C-55.33328125 37.96697266 -55.59625 38.54576172 -55.8671875 39.14208984 C-57.13091311 41.50131786 -58.58647266 43.29115531 -60.3203125 45.32568359 C-72.03603362 60.23882027 -74.81740788 78.43510258 -72.671875 96.79833984 C-70.0491748 110.54197013 -63.12159702 122.76690055 -53.0703125 132.38818359 C-52.48121094 133.00822266 -51.89210937 133.62826172 -51.28515625 134.26708984 C-47.16238365 138.31737414 -42.47586932 141.00127987 -37.3828125 143.63818359 C-36.76011475 143.9677002 -36.13741699 144.2972168 -35.49584961 144.63671875 C-24.03603048 150.28358615 -11.92220177 150.82875527 0.58984375 150.82958984 C2.15353104 150.84139312 3.7172072 150.85476442 5.28086853 150.86961365 C9.35459579 150.90544427 13.42822408 150.92590349 17.5020752 150.94116211 C24.0520099 150.96620721 30.60172662 151.00569282 37.15145683 151.06306267 C39.42931707 151.07933604 41.70696748 151.08316165 43.98487854 151.08607483 C45.37802496 151.0958482 46.77116806 151.10611099 48.16430664 151.11694336 C49.98412804 151.12335594 49.98412804 151.12335594 51.8407135 151.12989807 C54.83454647 151.38022835 56.47700403 151.70151711 58.9296875 153.38818359 C61.37489865 157.05600031 61.65206509 160.12271592 60.9296875 164.38818359 C59.05953656 166.81937982 57.64830405 168.02887532 54.9296875 169.38818359 C52.79873356 169.49543863 50.66437805 169.53708276 48.53076172 169.54931641 C47.87342041 169.55428131 47.2160791 169.55924622 46.53881836 169.56436157 C44.35399327 169.57901288 42.16924126 169.58579691 39.984375 169.59130859 C38.45614624 169.59706612 36.92791748 169.60282377 35.39968872 169.60858154 C32.18328516 169.61910572 28.96690664 169.6249363 25.75048828 169.62841797 C21.67376399 169.63384717 17.5973832 169.65774699 13.5207653 169.68638992 C10.35469692 169.70524865 7.18870656 169.71023447 4.02258682 169.71175385 C2.52302334 169.71473877 1.0234598 169.72262213 -0.47604752 169.73593903 C-26.69578269 169.95179495 -49.56073683 162.26089136 -68.703125 143.85693359 C-84.390886 127.54550014 -92.67020841 105.37679684 -92.42163086 82.79980469 C-91.62341511 58.30820912 -81.41133995 38.76090738 -64.1796875 21.49365234 C-46.16642948 4.72921263 -23.72775792 -0.09986424 0 0 Z " fill="#000000" transform="translate(125.0703125,137.61181640625)"/>
<path d="M0 0 C0.73003235 -0.00428513 1.4600647 -0.00857025 2.21221924 -0.01298523 C3.75540127 -0.01871818 5.29861031 -0.01923641 6.84179688 -0.01489258 C9.18147024 -0.01174786 11.51985922 -0.03514952 13.859375 -0.06054688 C15.36458176 -0.06282178 16.86979187 -0.06352248 18.375 -0.0625 C19.40980499 -0.07631462 19.40980499 -0.07631462 20.46551514 -0.09040833 C29.02714618 -0.01047823 35.2638735 3.2007889 41.40234375 9 C47.13387327 15.43023026 49.66737459 22.73079774 49.453125 31.30078125 C48.86492787 39.14340961 45.81359294 44.85606449 41.453125 51.30078125 C41.86304688 51.84605469 42.27296875 52.39132813 42.6953125 52.953125 C48.40617345 60.94559786 50.26110975 67.73528033 49.04296875 77.53515625 C47.12738446 86.51683623 42.10423941 93.27356951 34.453125 98.30078125 C28.99176185 100.656092 24.42398405 101.76004984 18.4453125 101.734375 C17.71619659 101.73961685 16.98708069 101.7448587 16.23587036 101.7502594 C14.70820378 101.75663209 13.18048782 101.75540487 11.65283203 101.74682617 C9.3262598 101.73827439 7.00211445 101.76720568 4.67578125 101.79882812 C3.18229239 101.80043958 1.68879923 101.79986367 0.1953125 101.796875 C-0.49233185 101.80810898 -1.1799762 101.81934296 -1.88845825 101.83091736 C-6.88742963 101.75925951 -9.67463288 100.38697459 -13.546875 97.30078125 C-18.68094697 91.88148306 -19.79394701 86.55668 -19.8215332 79.22900391 C-19.82664413 78.54847458 -19.83175507 77.86794525 -19.83702087 77.16679382 C-19.85084129 74.93271924 -19.84996572 72.69895582 -19.84765625 70.46484375 C-19.85154764 68.90074552 -19.85588322 67.33664833 -19.86064148 65.77255249 C-19.86808768 62.4993751 -19.86782429 59.2263056 -19.86254883 55.953125 C-19.85675958 51.77481443 -19.87367953 47.59694792 -19.8968935 43.41871071 C-19.91168254 40.18947807 -19.91249549 36.96035106 -19.90938377 33.73109055 C-19.9098945 32.19143165 -19.91508519 30.65176644 -19.92519569 29.11214066 C-20.02720106 11.40578122 -20.02720106 11.40578122 -14.109375 4.42578125 C-9.45823368 0.56873723 -5.97219277 -0.00779851 0 0 Z M-1.546875 17.30078125 C-1.546875 25.55078125 -1.546875 33.80078125 -1.546875 42.30078125 C3.4340625 42.39359375 3.4340625 42.39359375 8.515625 42.48828125 C9.54824463 42.51559326 10.58086426 42.54290527 11.64477539 42.57104492 C18.54452088 42.63294097 23.63038588 41.97495515 28.828125 37.05078125 C30.87444267 33.58778211 31.453125 31.33415234 31.453125 27.30078125 C30.10248894 22.98230017 28.46486478 20.88256521 24.51171875 18.609375 C19.4899275 16.61718359 14.33211169 16.97943134 9.015625 17.11328125 C5.53 17.17515625 2.044375 17.23703125 -1.546875 17.30078125 Z M-1.546875 59.30078125 C-1.546875 67.55078125 -1.546875 75.80078125 -1.546875 84.30078125 C3.4340625 84.39359375 3.4340625 84.39359375 8.515625 84.48828125 C9.54824463 84.51559326 10.58086426 84.54290527 11.64477539 84.57104492 C18.54452088 84.63294097 23.63038588 83.97495515 28.828125 79.05078125 C30.87444267 75.58778211 31.453125 73.33415234 31.453125 69.30078125 C30.10248894 64.98230017 28.46486478 62.88256521 24.51171875 60.609375 C19.4899275 58.61718359 14.33211169 58.97943134 9.015625 59.11328125 C5.53 59.17515625 2.044375 59.23703125 -1.546875 59.30078125 Z " fill="#000000" transform="translate(102.546875,171.69921875)"/>
<path d="M0 0 C1.04349609 -0.02900391 2.08699219 -0.05800781 3.16210938 -0.08789062 C14.92512727 -0.18281256 23.94397619 3.3130762 32.5625 11.3125 C42.94270171 21.56937258 45.80706855 32.06752139 45.93359375 46.44921875 C45.93343262 47.12645996 45.93327148 47.80370117 45.93310547 48.50146484 C45.93746227 50.54480465 45.97382241 52.58594916 46.01171875 54.62890625 C46.12791721 68.14724049 42.84795108 79.45787305 33.5625 89.46875 C23.9148589 98.70292076 13.6947899 101.49784096 0.75 101.625 C-0.70889648 101.66850586 -0.70889648 101.66850586 -2.19726562 101.71289062 C-8.53810202 101.76870029 -12.27484421 101.05969917 -17.4375 97.3125 C-22.01482268 92.37380974 -22.58822439 88.51459381 -22.59863281 81.9987793 C-22.60359772 81.25695404 -22.60856262 80.51512878 -22.61367798 79.75082397 C-22.6282853 77.29611279 -22.6350995 74.84146626 -22.640625 72.38671875 C-22.646378 70.67902118 -22.65213572 68.97132363 -22.65789795 67.2636261 C-22.66840412 63.68168843 -22.67424918 60.09977318 -22.67773438 56.51782227 C-22.68321574 51.93458849 -22.70723764 47.3516523 -22.73570633 42.76851177 C-22.75435814 39.2399866 -22.75953968 35.71153272 -22.76107025 32.18296242 C-22.764092 30.49371528 -22.77210438 28.80446926 -22.78525543 27.11527061 C-22.80236804 24.74808699 -22.80042316 22.38162519 -22.79394531 20.0144043 C-22.8031601 19.32068222 -22.81237488 18.62696014 -22.8218689 17.91221619 C-22.77693922 12.65373814 -21.5303895 8.55450122 -17.90234375 4.66796875 C-11.66368182 -0.10277272 -7.70946054 0.06912248 0 0 Z M-4.4375 17.3125 C-4.4375 39.4225 -4.4375 61.5325 -4.4375 84.3125 C6.02717718 84.3125 13.52243504 83.43325521 21.5625 76.3125 C27.87434729 68.36257806 27.83090425 61.11979756 27.9375 51.25 C27.97488281 49.96416016 28.01226562 48.67832031 28.05078125 47.35351562 C28.12495801 39.28061177 27.38579715 32.97363127 22.5625 26.3125 C14.61533555 18.42311468 6.71286437 17.3125 -4.4375 17.3125 Z " fill="#000000" transform="translate(265.4375,171.6875)"/>
<path d="M0 0 C1.2684375 -0.00478363 2.536875 -0.00956726 3.84375 -0.01449585 C6.52430824 -0.01789684 9.20258142 -0.01121028 11.8828125 0.01220703 C15.30975855 0.04069708 18.73474681 0.02428549 22.16162109 -0.00565529 C25.44114993 -0.02811794 28.72044556 -0.01236811 32 0 C33.2271875 -0.01012115 34.454375 -0.02024231 35.71875 -0.03067017 C45.17757972 0.09956516 45.17757972 0.09956516 48.2734375 2.98681641 C50.57486045 6.55545386 50.74453285 8.49467854 50 12.6640625 C48.35 14.3140625 46.7 15.9640625 45 17.6640625 C38.4 17.6640625 31.8 17.6640625 25 17.6640625 C25 39.7740625 25 61.8840625 25 84.6640625 C31.93 84.6640625 38.86 84.6640625 46 84.6640625 C50 89.6640625 50 89.6640625 50.5625 93.1640625 C50.01170641 96.59122264 49.432282 98.26552388 46.89428711 100.62957764 C42.45080335 103.05619854 36.92293858 102.36872664 32 102.328125 C30.7315625 102.33290863 29.463125 102.33769226 28.15625 102.34262085 C25.47569176 102.34602184 22.79741858 102.33933528 20.1171875 102.31591797 C16.69024145 102.28742792 13.26525319 102.30383951 9.83837891 102.33378029 C6.55885007 102.35624294 3.27955444 102.34049311 0 102.328125 C-1.2271875 102.33824615 -2.454375 102.34836731 -3.71875 102.35879517 C-13.17757972 102.22855984 -13.17757972 102.22855984 -16.2734375 99.34130859 C-18.57486045 95.77267114 -18.74453285 93.83344646 -18 89.6640625 C-16.35 88.0140625 -14.7 86.3640625 -13 84.6640625 C-6.4 84.6640625 0.2 84.6640625 7 84.6640625 C7 62.5540625 7 40.4440625 7 17.6640625 C0.4 17.6640625 -6.2 17.6640625 -13 17.6640625 C-18 12.6640625 -18 12.6640625 -18.625 9.1640625 C-18.01841587 5.76719137 -17.41444772 4.05094254 -14.89208984 1.69854736 C-10.45110702 -0.72952418 -4.92112628 -0.04058669 0 0 Z " fill="#000000" transform="translate(177,171.3359375)"/>
<path d="M0 0 C5.84877656 4.76164337 9.21428058 10.14992592 10.7890625 17.5234375 C11.42483508 25.47059473 9.66799167 32.68685653 4.6015625 38.8984375 C-0.9800408 44.6785497 -6.77438826 47.05709214 -14.76171875 47.55859375 C-22.00656363 47.45460076 -28.43151205 44.85039653 -33.875 40.05859375 C-38.8643831 34.83571735 -41.06409517 28.9164704 -41.3046875 21.71875 C-40.84612912 13.44177121 -38.56526331 7.49699218 -32.5859375 1.7109375 C-23.16197127 -5.97564948 -10.1466169 -6.77636252 0 0 Z M-19.8984375 15.1484375 C-22.38621704 17.37691473 -22.38621704 17.37691473 -23.2734375 20.4609375 C-23.44792815 23.61327925 -23.44792815 23.61327925 -21.6484375 26.3359375 C-18.68849584 28.9922954 -17.18225626 29.60448482 -13.2109375 29.5234375 C-9.71306664 27.58017591 -8.47217859 26.359409 -7.2734375 22.5234375 C-7.20787632 19.3765009 -7.33691489 18.02213432 -9.2109375 15.5234375 C-12.95404254 13.02803414 -15.94891596 12.76035471 -19.8984375 15.1484375 Z " fill="#000000" transform="translate(208.2109375,41.4765625)"/>
<path d="M0 0 C6.25556341 5.10230312 9.50707727 10.52177378 10.59765625 18.5234375 C11.11849684 27.27088851 8.45655578 33.87617344 2.72265625 40.5234375 C-3.42990407 45.76074092 -10.2745971 47.88790213 -18.27734375 47.3984375 C-26.33404918 46.30035667 -31.68020258 43.03182013 -36.80078125 36.73046875 C-40.62159938 31.01945752 -42.33950625 24.36574011 -41.27734375 17.5234375 C-39.3803182 8.89829468 -35.68885609 3.37720481 -28.27734375 -1.4765625 C-19.06939257 -6.02673537 -8.69241082 -5.63590273 0 0 Z M-21.27734375 15.5234375 C-23.15136636 18.02213432 -23.28040493 19.3765009 -23.21484375 22.5234375 C-22.01610266 26.359409 -20.77521461 27.58017591 -17.27734375 29.5234375 C-13.30602499 29.60448482 -11.79978541 28.9922954 -8.83984375 26.3359375 C-7.0403531 23.61327925 -7.0403531 23.61327925 -7.21484375 20.4609375 C-8.54036223 16.79626876 -9.96590829 15.5257008 -13.27734375 13.5234375 C-17.04648779 13.5234375 -18.28445384 13.52817756 -21.27734375 15.5234375 Z " fill="#000000" transform="translate(141.27734375,41.4765625)"/>
<path d="M0 0 C5.26114544 4.44274504 9.45114109 10.40521431 10.0859375 17.37890625 C10.31698833 25.47457178 9.8513105 31.80158774 4.8125 38.375 C-2.05598146 44.90345762 -8.74943581 47.42520247 -18.1875 47.375 C-26.20816299 46.37241713 -32.04962346 42.53835903 -37.1875 36.375 C-40.9708199 30.12385419 -42.27632768 23.59269274 -41.1875 16.375 C-39.39530247 9.30165234 -36.25043549 3.5844414 -30.1875 -0.625 C-19.31515063 -6.02114394 -10.6186911 -5.41345036 0 0 Z M-22.1875 16.375 C-23.60791821 19.21583641 -23.50202272 21.22977278 -23.1875 24.375 C-21.12501175 27.31007943 -19.64470755 28.21935488 -16.25 29.375 C-13.08808586 29.63035002 -13.08808586 29.63035002 -10.375 27.75 C-7.93886646 25.10505501 -7.1875 23.95551616 -7.1875 20.375 C-8.80905629 16.88865399 -9.95203292 15.53197806 -13.1875 13.375 C-17.48137011 13.375 -18.77616484 13.97784556 -22.1875 16.375 Z " fill="#000000" transform="translate(74.1875,41.625)"/>
</svg>
