<?xml version="1.0" encoding="UTF-8"?>
<svg version="1.1" xmlns="http://www.w3.org/2000/svg" width="512" height="512">
<path d="M0 0 C1.78199541 -0.00417667 3.56398815 -0.00965601 5.345976 -0.01631981 C10.22574834 -0.03074938 15.10535142 -0.02653746 19.98513293 -0.019153 C25.25450896 -0.01441748 30.52384858 -0.02693459 35.79321289 -0.03717041 C46.10975555 -0.05435621 56.4262373 -0.05519886 66.74279056 -0.04995751 C75.1291836 -0.04591416 83.51555866 -0.04736133 91.90195084 -0.05270576 C93.69315556 -0.0538284 93.69315556 -0.0538284 95.52054624 -0.05497371 C97.94652612 -0.05650521 100.37250601 -0.05804355 102.79848589 -0.05958868 C125.54288656 -0.07331294 148.28725282 -0.06787655 171.0316527 -0.05640347 C191.83222653 -0.04647126 212.6327114 -0.05941171 233.43327151 -0.08333766 C254.79992977 -0.10772929 276.1665466 -0.11733636 297.5332185 -0.11068493 C309.52552765 -0.10719285 321.51776838 -0.1094241 333.51006699 -0.12693596 C343.71884394 -0.14165869 353.9275043 -0.14229236 364.13627897 -0.12486505 C369.34284321 -0.11635334 374.54919919 -0.11420983 379.75575256 -0.1295166 C384.52650807 -0.14336831 389.29687698 -0.13859416 394.06761016 -0.11927737 C395.78891197 -0.11551856 397.51024479 -0.11843586 399.23151897 -0.12888902 C415.55899733 -0.22095525 428.88071821 3.3005494 441.22781372 14.57518005 C452.6575229 26.8291471 454.93290726 40.3968401 454.86549377 56.46723938 C454.86967142 58.0924927 454.8751513 59.7177431 454.88181359 61.34298813 C454.89623039 65.78950595 454.89203527 70.23583782 454.88464677 74.68236566 C454.87990806 79.48548118 454.89243118 84.28855687 454.90266418 89.09165955 C454.91984379 98.49379207 454.92069392 107.89585773 454.91545128 117.29800187 C454.91140676 124.94164177 454.9128565 132.58526195 454.91819954 140.22890091 C454.91894796 141.31757366 454.91969638 142.40624642 454.92046748 143.52790926 C454.92199899 145.73968315 454.92353734 147.95145703 454.92508245 150.16323091 C454.93880448 170.89609803 454.9333719 191.6289274 454.92189724 212.36179365 C454.91196538 231.31941077 454.92490527 250.27693028 454.94883143 269.23453234 C454.9732278 288.71181076 454.98282896 308.18904374 454.97617871 327.66633713 C454.97268766 338.59671309 454.97491101 349.52701399 454.99242973 360.45737839 C455.00715841 369.76219347 455.0077784 379.06688064 454.99035882 388.37169324 C454.98185196 393.11650382 454.97969167 397.86108594 454.99501038 402.60588455 C455.0088767 406.95475671 455.00406943 411.30320512 454.98477114 415.65205289 C454.98101678 417.21992359 454.98391677 418.78782839 454.99438279 420.35566865 C455.07832774 433.90082343 452.71017909 444.46396447 444.47781372 455.38768005 C443.90031372 456.25393005 443.32281372 457.12018005 442.72781372 458.01268005 C434.02110473 467.2030951 422.63580948 472.46198328 410.03933716 472.92869568 C393.6125147 473.06319143 382.22626734 468.16128289 370.47781372 456.63768005 C368.16386548 454.2741472 366.3191408 452.14967067 364.47781372 449.38768005 C361.39768758 449.10166056 358.5195845 449.00978177 355.43826294 449.04710388 C354.50162811 449.0466658 353.56499329 449.04622772 352.59997559 449.04577637 C349.49394113 449.04787186 346.38844176 449.07123883 343.28250122 449.0947113 C341.13301895 449.10030455 338.98353287 449.10457593 336.83404541 449.10757446 C331.16876723 449.11904458 325.50371874 449.14853045 319.83853149 449.1816864 C314.06077177 449.2123406 308.28297503 449.22606984 302.50515747 449.24119568 C291.16260848 449.27339804 279.82023018 449.32462055 268.47781372 449.38768005 C268.89439743 450.07316422 269.31098114 450.75864838 269.7401886 451.46490479 C270.28419815 452.3647258 270.8282077 453.26454681 271.38870239 454.19163513 C271.9290361 455.08336929 272.46936981 455.97510345 273.02607727 456.89385986 C274.57467732 459.55407416 275.77967904 462.16793578 276.79031372 465.07518005 C277.09582153 465.92467224 277.40132935 466.77416443 277.71609497 467.6493988 C279.89115909 475.46847546 279.72791806 483.38450039 279.79031372 491.45018005 C279.81931763 492.70379333 279.84832153 493.95740662 279.87820435 495.24900818 C279.95751832 506.72513037 279.95751832 506.72513037 275.47781372 511.38768005 C272.18071778 513.03622802 268.51006408 512.55314895 264.88479614 512.56468201 C263.55041252 512.5745388 263.55041252 512.5745388 262.18907166 512.58459473 C259.23714113 512.60434943 256.28526151 512.61599491 253.33328247 512.6259613 C251.82290122 512.63207459 251.82290122 512.63207459 250.28200722 512.63831139 C244.95299102 512.659181 239.62400064 512.67347909 234.29495239 512.68284607 C228.78671208 512.69391475 223.27887528 512.72831752 217.7707777 512.76801777 C213.53886659 512.79414493 209.3070522 512.80253442 205.07506752 512.80612755 C203.04447007 512.81100329 201.01387722 512.82264525 198.98335838 512.84116554 C196.14158396 512.86547479 193.30086113 512.86460701 190.45901489 512.85765076 C189.61986542 512.87046082 188.78071594 512.88327087 187.9161377 512.89646912 C183.90187072 512.86064484 181.95105875 512.68820947 178.47898865 510.48330688 C175.37920437 507.23721829 175.14404035 504.91525098 175.18484497 500.42674255 C175.64036339 497.25633438 177.23097029 495.56843985 179.47781372 493.38768005 C182.46024927 491.89646228 185.50397124 492.25766533 188.77322388 492.27415466 C189.90019936 492.27393562 189.90019936 492.27393562 191.04994202 492.27371216 C193.53894922 492.27441009 196.02788205 492.28219692 198.51687622 492.2900238 C200.24037637 492.29188841 201.96387706 492.29331211 203.68737793 492.29431152 C208.22807269 492.29813337 212.76873558 492.30796083 217.30941772 492.3190155 C221.94106617 492.32923676 226.57271975 492.33381068 231.20437622 492.33885193 C240.29553608 492.34958338 249.38667225 492.36665583 258.47781372 492.38768005 C258.34098906 490.16470387 258.19782733 487.9421172 258.05203247 485.7197113 C257.933479 483.86309875 257.933479 483.86309875 257.81253052 481.96897888 C256.91362799 472.35118084 253.55649771 463.71488397 246.07546997 457.34080505 C236.94122638 450.692724 228.32654023 449.26926964 217.21186829 449.25396729 C216.52675731 449.25170173 215.84164634 449.24943617 215.13577443 449.24710196 C212.86459733 449.24082604 210.59348089 449.24158716 208.32229614 449.24241638 C206.68381169 449.23942089 205.04532793 449.23601747 203.40684509 449.23223877 C198.97283356 449.22343445 194.53884135 449.22106217 190.10482192 449.22042298 C187.33006005 449.21971048 184.55530303 449.21757236 181.78054237 449.21492577 C172.08742589 449.20568428 162.39432313 449.2015894 152.70120239 449.20237732 C143.68647846 449.20297785 134.67181441 449.19242778 125.65710562 449.17663366 C117.89972122 449.16352999 110.14235633 449.15819461 102.38496095 449.15883273 C97.75969828 449.15908688 93.13448887 449.15628177 88.50923729 449.14565468 C84.15648946 449.13592596 79.80384531 449.13592704 75.45109367 449.14317131 C73.86088661 449.14421123 72.27067293 449.14188983 70.68047714 449.13581085 C51.01665612 449.05754628 51.01665612 449.05754628 34.28250122 458.36424255 C26.75724872 466.22271657 24.36204973 473.58155497 23.88015747 484.23143005 C23.83951172 485.01743591 23.79886597 485.80344177 23.75698853 486.61326599 C23.65827629 488.537789 23.56726377 490.46270431 23.47781372 492.38768005 C24.43137253 492.376577 25.38493134 492.36547394 26.36738586 492.35403442 C35.35728615 492.25264085 44.34707032 492.17770642 53.33741283 492.12861919 C57.95940687 492.10253422 62.58093903 492.06715665 67.20266724 492.01048279 C71.6636286 491.95612316 76.12414595 491.92625124 80.58541298 491.91329384 C82.28670555 491.90406098 83.98797403 491.88603092 85.68907738 491.85902977 C88.07385987 491.82268501 90.45681214 491.81773668 92.84182739 491.8200531 C93.54385788 491.80207672 94.24588837 491.78410034 94.9691925 491.76557922 C98.78142841 491.80559785 100.37316085 492.30435868 103.39256287 494.70831299 C106.01873523 498.08271743 106.47781372 500.12638489 106.47781372 504.38768005 C104.96264744 508.40287069 104.07228842 509.99136358 100.47781372 512.38768005 C97.51492835 512.60340809 94.64422753 512.70215658 91.67947388 512.70994568 C90.7799852 512.71987549 89.88049652 512.7298053 88.95375061 512.74003601 C85.97476149 512.76927334 82.9959853 512.78288127 80.01687622 512.79393005 C77.94805901 512.80543274 75.87924187 512.81694822 73.8104248 512.82847595 C69.4710287 512.84949372 65.13170669 512.86118069 60.79226685 512.8681488 C55.23112183 512.87912334 49.670955 512.92718758 44.11011696 512.98409271 C39.8361525 513.02133469 35.56242403 513.03175596 31.288311 513.03482056 C29.23814923 513.04087644 27.18799174 513.05694346 25.13798904 513.08319092 C22.26954892 513.11729804 19.40350314 513.11355949 16.53494263 513.10057068 C15.68801346 513.11900024 14.84108429 513.13742981 13.9684906 513.15641785 C8.37998671 513.07712846 8.37998671 513.07712846 5.83141136 511.12948513 C2.34655777 507.17880288 1.83620724 504.05807438 1.81375122 498.8915863 C1.80896759 498.18098557 1.80418396 497.47038483 1.79925537 496.73825073 C1.79586624 495.23636152 1.8049999 493.73439755 1.82595825 492.23265076 C1.85238842 489.98632645 1.82637504 487.74516366 1.79421997 485.49900818 C1.75926041 472.15310364 4.5873723 460.43429805 12.47781372 449.38768005 C11.20889282 449.3736615 11.20889282 449.3736615 9.91433716 449.35935974 C6.71562284 449.314824 3.5177966 449.25298307 0.3196106 449.18016052 C-1.05331622 449.15227896 -2.42639377 449.13090478 -3.79953003 449.11668396 C-19.59335439 448.94350606 -32.45388588 444.99194657 -44.27218628 434.20018005 C-55.40850286 422.26076372 -57.9807035 409.03896945 -57.90986633 393.29518127 C-57.91404477 391.7771725 -57.91952507 390.25916686 -57.92618614 388.74116695 C-57.94059271 384.59108579 -57.93641109 380.44120404 -57.92901933 376.29111218 C-57.92427806 371.80701684 -57.93680599 367.32296404 -57.94703674 362.83888245 C-57.96421137 354.06239877 -57.96506752 345.28598674 -57.95982384 336.50949062 C-57.95577837 329.37405016 -57.95723018 322.23863083 -57.9625721 315.10319138 C-57.96332052 314.08667801 -57.96406894 313.07016465 -57.96484004 312.02284785 C-57.96637156 309.95763596 -57.96790991 307.89242408 -57.96945501 305.8272122 C-57.98317525 286.47065737 -57.97774573 267.11414299 -57.9662698 247.75758909 C-57.95633821 230.06094195 -57.96927767 212.36439938 -57.99320399 194.66776837 C-58.01760417 176.48322341 -58.02720058 158.29872714 -58.02055126 140.11416614 C-58.01706105 129.91037573 -58.01927804 119.70666573 -58.03680229 109.50288773 C-58.05153575 100.8165724 -58.05214474 92.13039411 -58.03473138 83.44408144 C-58.0262284 79.01520673 -58.02405461 74.58657669 -58.03938293 70.15771484 C-58.05326102 66.09749817 -58.04842714 62.03773506 -58.0291437 57.97754441 C-58.02539291 56.51465291 -58.02827895 55.05172481 -58.03875535 53.58886601 C-58.1423045 38.0131163 -53.94896349 25.26160803 -43.33468628 13.63768005 C-30.60106766 1.76058287 -16.56567374 -0.06323658 0 0 Z M-30.39718628 31.20018005 C-44.15832583 48.14676858 -37.52218628 79.72148239 -37.52218628 96.38768005 C118.23781372 96.38768005 273.99781372 96.38768005 434.47781372 96.38768005 C437.87321169 61.96691463 437.87321169 61.96691463 425.65359497 29.3759613 C417.35737251 21.60130882 408.36492354 20.26536478 397.21005535 20.2590456 C396.50936445 20.25729256 395.80867354 20.25553953 395.08674958 20.25373337 C392.7452164 20.24909153 390.4037458 20.25153417 388.06221008 20.25396729 C386.36387736 20.2520984 384.66554507 20.24979739 382.96721345 20.24710196 C378.30488171 20.24098718 373.64256791 20.24111718 368.98023307 20.24229634 C363.95012185 20.24250042 358.92001638 20.23698084 353.88990784 20.23223877 C344.03686271 20.22393352 334.18382356 20.22118399 324.33077522 20.22062639 C316.32187309 20.22015119 308.31297293 20.21809624 300.30407143 20.21492577 C277.59702239 20.20611969 254.88997809 20.20150634 232.18292733 20.20225624 C230.34684165 20.20231617 230.34684165 20.20231617 228.47366333 20.20237732 C226.63533582 20.20243864 226.63533582 20.20243864 224.75987039 20.2025012 C204.89542712 20.2029077 185.03100281 20.19333697 165.16656502 20.17923895 C144.76956995 20.16487719 124.37258411 20.15796865 103.97558385 20.15883273 C92.52434032 20.15916476 81.07311665 20.15641505 69.62187767 20.14565468 C59.87267 20.13655234 50.12349121 20.13437226 40.37428113 20.1411641 C35.40094401 20.14443058 30.42766231 20.14448131 25.45433044 20.13581085 C20.89892812 20.12795073 16.34362521 20.12937234 11.78822533 20.13809498 C10.14291043 20.13963103 8.49758812 20.13780986 6.85228195 20.13223491 C-7.16042429 20.08791034 -20.20867326 20.32816092 -30.39718628 31.20018005 Z M-37.52218628 116.38768005 C-37.56343628 162.71143005 -37.60468628 209.03518005 -37.64718628 256.76268005 C-37.66539429 271.39402283 -37.68360229 286.0253656 -37.70236206 301.1000824 C-37.70905058 314.20599318 -37.70905058 314.20599318 -37.71307373 327.31190491 C-37.71493836 333.1531485 -37.72227289 338.99435381 -37.7333374 344.83558655 C-37.74608454 351.5750996 -37.7518543 358.31457595 -37.74907618 365.05410115 C-37.74787337 368.50030164 -37.74975631 371.94642015 -37.76061654 375.39260554 C-37.7705746 379.08824508 -37.76816229 382.78368003 -37.76269531 386.47932434 C-37.76852064 387.54713449 -37.77434597 388.61494465 -37.78034782 389.71511269 C-37.73717524 400.58525313 -36.43895732 410.76266709 -28.95578003 419.1415863 C-18.7116708 428.62511202 -6.92133614 428.53874777 6.28640747 428.4853363 C7.62161709 428.48346839 8.95682741 428.48204625 10.29203796 428.48104858 C13.7854404 428.47725282 17.27880045 428.46744806 20.77218628 428.4563446 C24.34528022 428.44606686 27.91838109 428.4415374 31.4914856 428.43650818 C38.48694558 428.4258228 45.48237761 428.40878221 52.47781372 428.38768005 C52.15474243 427.12995789 51.83167114 425.87223572 51.49880981 424.57640076 C48.79493176 414.05015628 50.40840305 404.52461001 55.76296997 395.1337738 C60.52527599 388.14286776 67.32416553 383.53328926 75.47781372 381.38768005 C79.37569918 381.07782123 83.26585312 381.0765048 87.17459106 381.0688324 C88.34589569 381.05878677 89.51720032 381.04874115 90.72399902 381.03839111 C94.58724487 381.00755356 98.45042138 380.99052206 102.31375122 380.97361755 C104.99561572 380.95490638 107.67746367 380.93542901 110.35931396 380.91493225 C116.69145553 380.86821572 123.02361397 380.83143725 129.35583937 380.79825938 C136.56750458 380.7599875 143.7790803 380.71059068 150.99066997 380.66027522 C165.81964865 380.55706145 180.64869167 380.46776684 195.47781372 380.38768005 C194.54168432 379.689521 194.54168432 379.689521 193.58664322 378.97725773 C185.81511092 373.11929043 179.00824477 366.11098029 172.11843872 359.2665863 C171.59017235 358.74239546 171.06190598 358.21820461 170.51763153 357.6781292 C167.7284847 354.90967939 164.94250893 352.13808211 162.15896606 349.36399841 C159.30061873 346.51675957 156.43076913 343.68140815 153.55826187 340.84846592 C151.33298775 338.64941696 149.11672235 336.44145114 146.90273285 334.23104668 C145.84883198 333.18198616 144.79158289 332.13627726 143.73081207 331.09416389 C134.63085525 322.14457274 129.3079433 314.48712478 128.47781372 301.38768005 C128.83928603 292.55570657 132.04078675 284.90237927 138.26296997 278.5712738 C143.31415764 274.43282641 149.10956481 271.76908262 155.47781372 270.38768005 C157.56596091 270.66816433 159.65137015 270.96951628 161.73416138 271.28733826 C170.18061914 271.34568255 174.31071992 267.17661042 180.19928932 261.51781178 C182.57561444 259.15873762 184.91415563 256.76604859 187.25125122 254.3681488 C188.91049898 252.71071517 190.57204793 251.05558236 192.23577881 249.40264893 C195.70578906 245.93972188 199.15010959 242.45364811 202.5774231 238.94847107 C206.96485233 234.46437191 211.40586757 230.03829769 215.86682701 225.62748241 C219.30191119 222.22053032 222.70955148 218.78716012 226.10930252 215.34498024 C227.73708132 213.70235732 229.37261394 212.06737973 231.01603317 210.44040489 C233.31051922 208.15978383 235.5662412 205.84662496 237.81521606 203.52122498 C238.49452682 202.85946762 239.17383759 202.19771027 239.87373352 201.51589966 C243.54965205 197.62722652 244.86813597 195.11945302 244.85516357 189.69573975 C244.78779306 188.80692769 244.72042255 187.91811563 244.65101051 187.00236988 C244.08433908 178.44753465 247.27827872 171.03772911 252.47781372 164.38768005 C259.10796323 157.52534632 267.06489181 154.49027188 276.54031372 154.01268005 C291.62259292 155.4490876 300.83319165 164.27138441 311.11843872 174.5947113 C312.21424953 175.68594945 313.31042767 176.77681883 314.4069519 177.86734009 C316.69114929 180.14265584 318.96965897 182.42348365 321.24441528 184.70823669 C324.14295232 187.61827586 327.05707148 190.51212605 329.97589493 193.4017992 C332.23936882 195.6468288 334.49335348 197.90120425 336.74477386 200.15831566 C337.8148805 201.2285744 338.88804415 202.29578655 339.96445465 203.35970497 C349.43314541 212.73385661 355.66197405 220.42364213 355.79031372 234.07518005 C355.80047537 244.11037392 353.1388637 250.35467655 346.33718872 257.6650238 C342.05580428 261.63160057 337.09834707 263.88254326 331.47781372 265.38768005 C329.05779571 265.2801237 326.64002264 265.10972439 324.22781372 264.88768005 C319.48004775 264.77519596 317.21680104 264.87517114 313.27859497 267.60643005 C310.82637486 270.09713008 308.58984198 272.60477222 306.47781372 275.38768005 C308.06133916 279.74496247 311.45726815 282.2104917 314.91531372 285.07518005 C315.54639038 285.6069989 316.17746704 286.13881775 316.82766724 286.68675232 C321.36667219 290.5005263 325.96424882 294.24191531 330.56765747 297.9775238 C334.75193431 301.44289134 338.83608783 305.02012935 342.93069458 308.59056091 C346.56519223 311.75233843 350.23302215 314.85618212 353.97781372 317.88768005 C359.06590578 322.00661172 363.99785195 326.28915339 368.93093872 330.59080505 C372.56537871 333.75247236 376.2331119 336.85625477 379.97781372 339.88768005 C384.39450316 343.46309531 388.69561757 347.15367354 392.97781372 350.88768005 C398.12865125 355.37846782 403.3433142 359.76516699 408.65359497 364.06736755 C413.20269164 367.80479967 417.65728893 371.65154892 422.11843872 375.4931488 C422.66435669 375.96156189 423.21027466 376.42997498 423.7727356 376.9125824 C424.98493576 377.96128134 426.18850577 379.0199923 427.38601685 380.08543396 C428.00927856 380.63505798 428.63254028 381.18468201 429.27468872 381.7509613 C429.84026489 382.25538757 430.40584106 382.75981384 430.98855591 383.27952576 C432.43585067 384.58666855 432.43585067 384.58666855 434.47781372 384.38768005 C434.47781372 295.94768005 434.47781372 207.50768005 434.47781372 116.38768005 C278.71781372 116.38768005 122.95781372 116.38768005 -37.52218628 116.38768005 Z M268.47781372 177.38768005 C265.80282977 180.15490483 264.65722345 182.53037095 264.47781372 186.38768005 C266.34187336 191.64163352 268.46148139 194.86763044 272.46829224 198.84812927 C272.96294983 199.34497726 273.45760742 199.84182526 273.96725464 200.35372925 C275.58763482 201.97640154 277.22175709 203.5844007 278.85671997 205.19236755 C279.99187575 206.32259479 281.12621723 207.45364042 282.25978088 208.58546448 C284.62848009 210.94654904 287.00346448 213.30104306 289.38381958 215.65037537 C292.43796265 218.66478659 295.48109384 221.69001221 298.52026463 224.71951103 C301.42055818 227.60984821 304.32579098 230.49519789 307.23171997 233.37986755 C307.7865613 233.93131313 308.34140263 234.48275871 308.91305733 235.05091476 C310.47825309 236.60456316 312.04686858 238.15466557 313.61672974 239.70359802 C314.50924942 240.5862735 315.4017691 241.46894897 316.32133484 242.37837219 C319.57598422 245.41090483 321.90508695 245.77960338 326.37234497 245.74705505 C330.09374825 245.11186192 331.88094221 243.04788989 334.47781372 240.38768005 C336.3170983 236.70911089 336.33532081 233.37725511 335.47781372 229.38768005 C333.80506357 226.97314052 333.80506357 226.97314052 331.55471802 224.70384216 C330.73474335 223.83202301 329.91476868 222.96020386 329.06994629 222.06196594 C328.21454254 221.1794516 327.35913879 220.29693726 326.47781372 219.38768005 C325.29416733 218.15805038 325.29416733 218.15805038 324.08660889 216.90357971 C321.6152369 214.3616701 319.12299499 211.84218904 316.62234497 209.3290863 C315.71707565 208.41811691 314.81180634 207.50714752 313.87910461 206.568573 C311.9826576 204.66174373 310.08399408 202.75715135 308.18411255 200.85374451 C305.76000334 198.4241029 303.34535555 195.98527362 300.93265247 193.54431248 C298.60663246 191.19516001 296.27003467 188.85662331 293.93484497 186.5165863 C293.07534744 185.64474197 292.21584991 184.77289764 291.33030701 183.87463379 C284.11184407 176.68287056 278.41239074 171.46920864 268.47781372 177.38768005 Z M251.9745636 216.76651001 C251.33295792 217.41171097 250.69135223 218.05691193 250.03030396 218.72166443 C249.02059036 219.73115898 249.02059036 219.73115898 247.99047852 220.76104736 C245.75341145 222.99881428 243.51991282 225.24010864 241.28640747 227.48143005 C239.7410571 229.02864435 238.19548663 230.57563884 236.64970398 232.12242126 C232.57205159 236.20390084 228.49741044 240.28837398 224.42337036 244.37345886 C220.26949008 248.53754897 216.11279491 252.69882703 211.95632935 256.8603363 C203.79405266 265.03335385 195.63495151 273.20953381 187.47781372 281.38768005 C189.01828795 284.62385312 190.64017833 286.79400252 193.19314575 289.33006287 C194.33410202 290.47079254 194.33410202 290.47079254 195.49810791 291.63456726 C196.31898895 292.44512573 197.13987 293.2556842 197.98562622 294.09080505 C198.82624603 294.92859497 199.66686584 295.76638489 200.53295898 296.62956238 C203.21825373 299.30366437 205.91042027 301.9707273 208.60281372 304.63768005 C210.42488528 306.44972067 212.24650549 308.26221524 214.06765747 310.07518005 C218.53248624 314.51796041 223.00297655 318.95498171 227.47781372 323.38768005 C230.2816843 322.10881237 232.33029907 320.78386957 234.50241089 318.60359192 C235.07165787 318.03709427 235.64090485 317.47059662 236.22740173 316.88693237 C236.83952011 316.26762344 237.45163849 315.64831451 238.08230591 315.01023865 C239.06341591 314.02956673 239.06341591 314.02956673 240.06434631 313.02908325 C242.22256887 310.86946868 244.37362308 308.70285886 246.52468872 306.53611755 C248.02069181 305.03638389 249.51713742 303.53709152 251.01400757 302.03822327 C254.95081597 298.09378193 258.88158106 294.14337111 262.81112671 290.19169617 C266.8226987 286.15965852 270.83994466 282.13328291 274.85671997 278.10643005 C282.73598817 270.20571792 290.60888497 262.29868915 298.47781372 254.38768005 C295.28496909 250.61335704 292.09536386 246.88042937 288.59963989 243.38011169 C287.90259445 242.67991409 287.20554901 241.97971649 286.48738098 241.25830078 C285.75590347 240.5288475 285.02442596 239.79939423 284.27078247 239.0478363 C283.12178215 237.89740089 283.12178215 237.89740089 281.9495697 236.72372437 C280.34310636 235.11658458 278.73539577 233.51069064 277.12649536 231.9059906 C274.65193749 229.43683302 272.18281729 226.96232681 269.71414185 224.48728943 C268.15000966 222.92381725 266.58556772 221.36065487 265.02078247 219.7978363 C264.27918381 219.05421341 263.53758514 218.31059052 262.77351379 217.54443359 C262.09222916 216.86630112 261.41094452 216.18816864 260.70901489 215.48948669 C260.10756149 214.88882889 259.50610809 214.28817108 258.88642883 213.66931152 C255.79381199 210.85548748 254.38505051 214.36171707 251.9745636 216.76651001 Z M150.60281372 295.01268005 C148.76389203 298.89484806 148.61774712 302.19671786 149.47781372 306.38768005 C150.67005244 308.29065871 150.67005244 308.29065871 152.34963989 310.00901794 C152.98719208 310.70069061 153.62474426 311.39236328 154.28161621 312.10499573 C158.52563837 316.51614855 162.82017321 320.87306495 167.15359497 325.1962738 C168.17027611 326.21363006 169.18680889 327.23113459 170.20320129 328.2487793 C172.31696545 330.36400664 174.43249988 332.4774424 176.54934692 334.58958435 C179.26412893 337.29862577 181.97433707 340.01219203 184.68327045 342.72708035 C186.77377691 344.8211925 188.86664933 346.91292696 190.96025658 349.00393867 C191.96135049 350.00436561 192.96170238 351.00553564 193.96129799 352.00745964 C195.35151298 353.40020598 196.74526568 354.78941836 198.13919067 356.17845154 C198.93082108 356.96928635 199.72245148 357.76012115 200.53807068 358.57492065 C203.6574074 361.49005263 206.10438967 361.77815127 210.37234497 361.74705505 C214.09374825 361.11186192 215.88094221 359.04788989 218.47781372 356.38768005 C220.31724268 352.70882214 220.33424508 349.3776944 219.47781372 345.38768005 C217.81379769 342.98168924 217.81379769 342.98168924 215.57058716 340.7197113 C214.75054199 339.84782166 213.93049683 338.97593201 213.08560181 338.07762146 C212.22503174 337.1899408 211.36446167 336.30226013 210.47781372 335.38768005 C209.27155334 334.1354364 209.27155334 334.1354364 208.04092407 332.8578949 C205.50022301 330.24650992 202.93849517 327.65767046 200.36843872 325.07518005 C199.43860168 324.13964294 198.50876465 323.20410583 197.55075073 322.24021912 C195.60303014 320.28211426 193.65309129 318.32624753 191.70193481 316.37156677 C189.20823004 313.87232294 186.72398541 311.36388419 184.24167252 308.85333252 C181.8529889 306.44155903 179.45376838 304.04036014 177.05593872 301.63768005 C176.16940613 300.73880066 175.28287354 299.83992126 174.36947632 298.9138031 C173.53801086 298.08533875 172.70654541 297.25687439 171.84988403 296.40330505 C171.12424255 295.67401794 170.39860107 294.94473083 169.65097046 294.19334412 C163.21901235 288.84906526 156.81371321 289.6299005 150.60281372 295.01268005 Z M288.80374146 292.94822693 C288.09677124 293.66043396 287.38980103 294.37264099 286.66140747 295.10643005 C285.51575317 296.25691833 285.51575317 296.25691833 284.34695435 297.4306488 C283.54451294 298.24146912 282.74207153 299.05228943 281.91531372 299.88768005 C281.10900513 300.69850037 280.30269653 301.50932068 279.47195435 302.3447113 C277.47166938 304.35683227 275.47374594 306.37124276 273.47781372 308.38768005 C277.02968617 313.25754291 280.67723026 317.85625074 284.79031372 322.26268005 C289.37620082 327.18445425 289.37620082 327.18445425 290.47781372 329.38768005 C293.81015946 327.93526269 296.02006978 326.10267145 298.58718872 323.54393005 C299.34129028 322.79240662 300.09539185 322.04088318 300.87234497 321.2665863 C301.64964966 320.48154724 302.42695435 319.69650818 303.22781372 318.88768005 C304.02058716 318.10264099 304.8133606 317.31760193 305.63015747 316.5087738 C306.37910278 315.75725037 307.1280481 315.00572693 307.89968872 314.23143005 C308.58643677 313.54242615 309.27318481 312.85342224 309.98074341 312.14353943 C311.69408121 310.51860046 311.69408121 310.51860046 311.47781372 308.38768005 C309.88447133 306.95218279 308.2253029 305.58940679 306.54031372 304.26268005 C301.93676564 300.58817919 297.50715593 296.79168816 293.15750122 292.8212738 C290.94411215 290.87962381 290.94411215 290.87962381 288.80374146 292.94822693 Z M248.85281372 332.32518005 C248.05101685 333.06059021 247.24921997 333.79600037 246.42312622 334.55369568 C242.17106987 338.53920003 242.17106987 338.53920003 239.98171997 343.76683044 C240.00047317 346.01322876 240.20445907 348.15991986 240.47781372 350.38768005 C239.50069372 360.27459159 236.72311614 367.99388952 229.39578247 374.8525238 C224.01642761 379.15819887 218.12953766 380.96231064 211.47781372 382.38768005 C212.05660278 382.81693787 212.63539185 383.24619568 213.23171997 383.6884613 C221.52775702 389.96459368 227.69952269 396.10182927 230.47781372 406.38768005 C230.63899603 409.09772845 230.71357554 411.68501797 230.66531372 414.38768005 C230.66466919 415.0734613 230.66402466 415.75924255 230.6633606 416.46580505 C230.62774403 420.61315594 230.16739263 424.25020659 229.47781372 428.38768005 C268.08781372 428.38768005 306.69781372 428.38768005 346.47781372 428.38768005 C343.33064552 423.59156364 343.33064552 423.59156364 339.84890747 419.1962738 C339.37703003 418.6509198 338.90515259 418.1055658 338.41897583 417.54368591 C337.92276733 416.97657898 337.42655884 416.40947205 336.91531372 415.82518005 C335.84201744 414.5859254 334.76910925 413.34633453 333.69656372 412.10643005 C333.1577356 411.48510193 332.61890747 410.8637738 332.06375122 410.22361755 C329.66041288 407.44142785 327.28644437 404.63482213 324.91531372 401.82518005 C324.46599487 401.29336121 324.01667603 400.76154236 323.55374146 400.21360779 C322.64790636 399.1413915 321.74222547 398.06904493 320.83670044 396.99656677 C318.55235186 394.29195716 316.26491864 391.58995878 313.97781372 388.88768005 C313.06113246 387.80435907 312.14446579 386.72102574 311.22781372 385.63768005 C310.77406372 385.10143005 310.32031372 384.56518005 309.85281372 384.01268005 C301.14448039 373.72101339 292.43614705 363.42934672 283.72781372 353.13768005 C283.27358032 352.60086609 282.81934692 352.06405212 282.35134888 351.51097107 C281.43953581 350.43335907 280.5277517 349.35572256 279.61599731 348.27806091 C277.25031398 345.48198403 274.88404897 342.68640239 272.51687622 339.8915863 C272.02896606 339.31537537 271.54105591 338.73916443 271.0383606 338.14549255 C270.11537308 337.05548825 269.19221049 335.96563217 268.26882935 334.8759613 C264.6157332 330.56119325 264.6157332 330.56119325 263.11746216 328.67625427 C261.94566809 327.21258318 260.71588969 325.79572916 259.47781372 324.38768005 C255.24604825 324.38768005 251.73863423 329.52602786 248.85281372 332.32518005 Z M325.08010864 326.13841248 C324.21490601 326.99797546 323.34970337 327.85753845 322.45828247 328.7431488 C321.99545364 329.201194 321.53262482 329.6592392 321.05577087 330.13116455 C320.08067242 331.10286082 319.11185901 332.080899 318.1489563 333.06468201 C316.67047981 334.56992045 315.16725429 336.04664801 313.65945435 337.52244568 C312.71578971 338.46941436 311.77367728 339.41793291 310.83328247 340.3681488 C309.97371948 341.23335144 309.11415649 342.09855408 308.22854614 342.98997498 C306.2366819 345.18703524 306.2366819 345.18703524 306.59622192 347.56443787 C307.83438096 350.12510574 309.52121246 351.8882756 311.47781372 353.95018005 C314.68432499 357.40877555 317.76812862 360.90297817 320.72781372 364.57518005 C324.38627506 369.09708944 328.15474088 373.50546904 331.97781372 377.88768005 C336.45328895 383.01984076 340.81788923 388.21953804 345.10281372 393.51268005 C348.00277342 397.02315759 350.98542567 400.4559794 353.97781372 403.88768005 C358.47220543 409.04265122 362.86088043 414.26287882 367.16921997 419.57518005 C371.37990197 424.70494492 375.71208014 429.72814945 380.06277466 434.73924255 C381.35989831 436.25031552 382.62747568 437.78662146 383.89187622 439.32518005 C389.61335476 446.11817224 394.90660816 450.69049424 403.94265747 451.8212738 C412.80958931 452.13355636 418.48266248 450.82536833 425.16531372 445.07518005 C431.75866655 437.41263488 433.9133699 432.35179086 433.81765747 422.03611755 C432.87215739 411.88557644 426.57685061 405.63687746 419.11062622 399.4150238 C417.29092657 397.92740584 415.4649819 396.44740609 413.63406372 394.97361755 C410.00725508 392.03089366 406.49565411 388.95907823 402.97781372 385.88768005 C397.8196175 381.38984667 392.59622789 376.99771346 387.27859497 372.6884613 C382.79783752 369.00761592 378.41622186 365.21254812 374.02078247 361.4306488 C370.66638744 358.5453743 367.29489383 355.68088944 363.91531372 352.82518005 C363.38309204 352.37545837 362.85087036 351.92573669 362.30252075 351.46238708 C361.23068032 350.55699564 360.15874046 349.65172188 359.08670044 348.74656677 C356.92412833 346.92003015 354.76319074 345.09156808 352.60281372 343.26243591 C351.52680576 342.35212929 350.44999313 341.44277288 349.37234497 340.53440857 C346.53317825 338.13929235 343.71181872 335.72648681 340.91140747 333.28611755 C340.3261731 332.78016052 339.74093872 332.27420349 339.13796997 331.75291443 C338.01715638 330.78332172 336.90099117 329.80832059 335.79031372 328.82713318 C330.78039223 324.21963672 330.78039223 324.21963672 325.08010864 326.13841248 Z M72.97781372 405.51268005 C70.92135766 409.45422084 70.28972707 412.95196984 70.47781372 417.38768005 C72.15169794 422.60626026 74.70562915 424.81070038 79.47781372 427.38768005 C82.80274055 428.21748373 85.90210473 428.51440034 89.32189941 428.52139282 C90.26945602 428.52565781 91.21701263 428.52992279 92.19328308 428.53431702 C93.22094284 428.53386383 94.2486026 428.53341064 95.30740356 428.53294373 C96.9448629 428.53798164 96.9448629 428.53798164 98.61540222 428.54312134 C102.2231968 428.55261832 105.83094492 428.5545738 109.43875122 428.5556488 C111.94832376 428.55886214 114.45789612 428.56222627 116.96746826 428.56573486 C122.22808127 428.57172291 127.4886825 428.57361793 132.7492981 428.57298279 C138.81877811 428.57238224 144.88816918 428.58293214 150.9576267 428.59872645 C156.80902358 428.61340751 162.66038542 428.61697005 168.51179886 428.61637306 C170.99566638 428.61755257 173.47953458 428.62197269 175.96339035 428.62970543 C179.43881342 428.63951242 182.914008 428.63662435 186.38943481 428.63059998 C187.41304611 428.63621948 188.43665741 428.64183899 189.49128723 428.64762878 C195.52625119 428.62107225 201.36474242 428.58693395 206.47390747 424.9775238 C209.37148666 421.65590864 210.8757096 419.24440135 211.04031372 414.76268005 C210.64971877 409.53403404 208.89344995 406.72880912 205.10281372 403.13768005 C201.1375449 400.49416751 197.33042019 400.26428956 192.64718628 400.24723816 C191.70251999 400.24152802 190.7578537 400.23581787 189.78456116 400.22993469 C188.76004349 400.22881683 187.73552582 400.22769897 186.67996216 400.22654724 C185.59153519 400.22158234 184.50310822 400.21661743 183.38169861 400.21150208 C179.78352219 400.19690604 176.18538987 400.19008259 172.58718872 400.18455505 C170.08240762 400.17880139 167.57762654 400.17304368 165.07284546 400.1672821 C160.49146845 400.15812079 155.91010403 400.15181761 151.3287189 400.14878535 C144.60429024 400.14430912 137.88006529 400.12677615 131.15569854 400.09778476 C125.31498627 400.07348505 119.47434144 400.06583724 113.63358307 400.0641098 C111.15694317 400.0610887 108.68030402 400.05307856 106.2036972 400.03992462 C102.73339035 400.0228089 99.26357572 400.02475819 95.79324341 400.03123474 C94.77682266 400.02201996 93.76040192 400.01280518 92.71318054 400.00331116 C85.5219383 400.04520593 78.62477245 400.71276513 72.97781372 405.51268005 Z " fill="#000000" transform="translate(57.522186279296875,-0.3876800537109375)"/>
<path d="M0 0 C1.90040588 1.32621765 1.90040588 1.32621765 3.79516602 3.07299805 C4.83762985 4.02835953 4.83762985 4.02835953 5.90115356 5.00302124 C9.15055817 8.09471574 12.36084039 11.21791247 15.52734375 14.39453125 C16.20172989 15.06796066 16.87611603 15.74139008 17.57093811 16.43522644 C18.97959068 17.8432044 20.38700499 19.25242224 21.79321289 20.6628418 C23.95279773 22.82783604 26.11773882 24.98737256 28.28320312 27.14648438 C29.6565712 28.52051237 31.02962951 29.89485006 32.40234375 31.26953125 C33.37408791 32.23823906 33.37408791 32.23823906 34.36546326 33.22651672 C35.25758263 34.12336433 35.25758263 34.12336433 36.16772461 35.03833008 C36.69208603 35.56348709 37.21644745 36.0886441 37.75669861 36.62971497 C40.54694582 39.70494195 40.32741602 42.76869243 40.2890625 46.73828125 C39.86115823 50.08634301 38.44926739 51.76066981 36 54 C32.2350613 55.25497957 29.96991382 55.52064444 26 55 C24.15000916 53.67892456 24.15000916 53.67892456 22.24584961 51.92919922 C21.5468454 51.29157654 20.84784119 50.65395386 20.12765503 49.99700928 C19.42552887 49.33799622 18.72340271 48.67898315 18 48 C17.3612796 47.4046344 16.7225592 46.8092688 16.06448364 46.19586182 C11.91484873 42.28521882 7.84493058 38.2923309 3.77954102 34.29443359 C2.29687924 32.84360962 0.80622589 31.40090951 -0.69213867 29.96630859 C-2.87553237 27.87423736 -5.0314907 25.75700247 -7.18359375 23.6328125 C-7.85329697 23.00126251 -8.52300018 22.36971252 -9.21299744 21.71902466 C-13.24340497 17.67141785 -14.78384508 14.72195817 -15.13685608 8.98727417 C-14.92850206 5.96178512 -13.98344206 4.25702027 -12 2 C-8.55547069 -0.67907836 -4.16111782 -0.99434868 0 0 Z " fill="#000000" transform="translate(75,257)"/>
<path d="M0 0 C0.84055435 -0.00287018 1.6811087 -0.00574036 2.5471344 -0.00869751 C4.31796953 -0.01073131 6.08882748 -0.00524945 7.85961914 0.00732422 C10.55471612 0.02336791 13.24830905 0.0074631 15.94335938 -0.01171875 C17.6705762 -0.0097358 19.39779209 -0.00589106 21.125 0 C21.92312607 -0.00607269 22.72125214 -0.01214539 23.54356384 -0.0184021 C28.7870531 0.04676286 32.49519703 0.88264704 37.12890625 3.3984375 C39.80796355 7.41702345 39.82501319 10.67485471 39.12890625 15.3984375 C37.33496957 18.26873619 36.14627349 19.88975388 33.12890625 21.3984375 C31.70569386 21.50780024 30.27763614 21.55742353 28.8503418 21.57543945 C27.96569748 21.58827469 27.08105316 21.60110992 26.16960144 21.61433411 C25.21128922 21.62172104 24.25297699 21.62910797 23.265625 21.63671875 C21.78942436 21.64882637 21.78942436 21.64882637 20.28340149 21.66117859 C18.19782272 21.67502415 16.11222125 21.68574418 14.02661133 21.69360352 C10.8395687 21.71081243 7.65356434 21.75469417 4.46679688 21.79882812 C2.44141389 21.80895529 0.41602207 21.81747132 -1.609375 21.82421875 C-3.0377343 21.85048088 -3.0377343 21.85048088 -4.49494934 21.87727356 C-8.8107048 21.86315207 -11.21180559 21.80164541 -14.96166992 19.50830078 C-17.65063231 16.53706782 -17.78960047 14.46485894 -18 10.58203125 C-17.81079094 7.37694451 -17.03123139 5.76762072 -14.87109375 3.3984375 C-9.82476233 0.23710023 -5.76420741 -0.04374711 0 0 Z " fill="#000000" transform="translate(62.87109375,333.6015625)"/>
<path d="M0 0 C3.31391508 1.46239056 5.32080071 3.81639546 7.0625 6.91015625 C7.77104885 10.26258321 7.74087042 13.52864052 7.69140625 16.9453125 C7.69381821 17.90159042 7.69623016 18.85786835 7.69871521 19.84312439 C7.69773876 21.85777956 7.68439365 23.87246223 7.65942383 25.88696289 C7.62506772 28.96658563 7.63878756 32.04334441 7.65820312 35.12304688 C7.65130549 37.0846476 7.64163386 39.04624094 7.62890625 41.0078125 C7.63386612 41.92563004 7.63882599 42.84344757 7.64393616 43.78907776 C7.56626853 48.01259149 7.43437682 50.31520086 5.15209961 53.96655273 C1.82478386 57.06139567 -0.44439338 57.14476145 -4.97265625 57.0546875 C-7.52426703 56.86699446 -8.93599561 56.54101168 -10.9375 54.91015625 C-14.20935805 49.73552626 -14.37823696 45.4531393 -14.3359375 39.53125 C-14.33880768 38.64156021 -14.34167786 37.75187042 -14.34463501 36.83522034 C-14.34666914 34.96183635 -14.34118497 33.0884308 -14.32861328 31.21508789 C-14.31253112 28.35319462 -14.32849372 25.49270941 -14.34765625 22.63085938 C-14.34567407 20.80598648 -14.34183093 18.98111446 -14.3359375 17.15625 C-14.34201019 16.3040538 -14.34808289 15.4518576 -14.3543396 14.57383728 C-14.29863744 9.8550217 -13.9747601 6.75296655 -10.9375 2.91015625 C-7.30856987 -0.20035529 -4.54567292 -0.35742186 0 0 Z " fill="#000000" transform="translate(146.9375,233.08984375)"/>
<path d="M0 0 C2.8100346 1.79363911 4.50940468 3.01880935 6 6 C6.43598616 15.01038062 6.43598616 15.01038062 4 18 C0.57873083 20.36230491 -2.0301481 21.25836526 -6.125 20.9375 C-10.25445976 19.93843715 -11.72708411 19.54574879 -14 16 C-15.12376774 11.35509333 -15.39710361 9.12861027 -13.8125 4.625 C-10.34322562 -0.39946635 -5.9287268 -0.98812113 0 0 Z " fill="#000000" transform="translate(157,52)"/>
<path d="M0 0 C2.6531134 2.1617961 3.5538562 4.153065 4.6875 7.375 C4.88338837 11.29276747 4.27334369 14.46108385 2.125 17.8125 C-1.22641615 19.96084369 -4.39473253 20.57088837 -8.3125 20.375 C-11.534435 19.2413562 -13.5257039 18.3406134 -15.6875 15.6875 C-16.6265585 12.21298354 -16.90227379 8.91364272 -16.3125 5.375 C-12.23111209 -1.01917439 -7.13643953 -1.92876744 0 0 Z " fill="#000000" transform="translate(114.3125,52.625)"/>
<path d="M0 0 C2.8100346 1.79363911 4.50940468 3.01880935 6 6 C6.42071592 9.05920574 6.48514117 11.9467746 6 15 C3.81840855 17.75569447 2.12822506 19.43588747 -1 21 C-6.26883876 21.59873168 -8.8846468 20.25400021 -13 17 C-14.72869779 13.54260443 -14.48966895 9.78024432 -14 6 C-10.38599231 0.2175877 -6.68966949 -0.96115941 0 0 Z " fill="#000000" transform="translate(68,52)"/>
<path d="M0 0 C3.67080764 2.52368025 4.75864984 4.17035883 6 8.4375 C6 12.53094236 5.22004022 14.59065251 3 18 C-1.01858595 20.6790573 -4.27641721 20.69610694 -9 20 C-11.87029869 18.20606332 -13.49131638 17.01736724 -15 14 C-15.5811138 6.91041162 -15.5811138 6.91041162 -13.125 3.0625 C-9.22556807 -0.72224276 -5.23389564 -0.78644028 0 0 Z " fill="#000000" transform="translate(203,492)"/>
</svg>
