<?xml version="1.0" encoding="UTF-8"?>
<svg version="1.1" xmlns="http://www.w3.org/2000/svg" width="512" height="512">
<path d="M0 0 C1.13600981 -0.00445784 2.27201963 -0.00891569 3.44245398 -0.01350862 C4.69602552 -0.01332426 5.94959707 -0.01313989 7.24115562 -0.01294994 C8.58201656 -0.01624884 9.9228765 -0.01997446 11.26373518 -0.02409142 C14.95649617 -0.0341168 18.64924092 -0.03782908 22.3420136 -0.04048073 C26.32172732 -0.04438223 30.30142815 -0.05396073 34.28113365 -0.0626936 C43.89661835 -0.08246312 53.51210412 -0.09252516 63.12760407 -0.10142139 C67.65515433 -0.10580378 72.18270342 -0.11117074 76.71025276 -0.11641026 C91.76022728 -0.13342357 106.81020106 -0.14791763 121.86018372 -0.155159 C125.76642037 -0.15706891 129.67265703 -0.15898924 133.57889366 -0.16094494 C134.54977678 -0.16142868 135.5206599 -0.16191242 136.52096371 -0.16241082 C152.2477882 -0.17071068 167.97453661 -0.19604639 183.70132788 -0.22852562 C199.84595501 -0.26159602 215.99054349 -0.27960777 232.13520467 -0.28280324 C241.20051373 -0.28496843 250.26571188 -0.29371833 259.33098793 -0.31926441 C267.0517331 -0.34097121 274.77234042 -0.34902197 282.49311264 -0.33929763 C286.43147446 -0.33475275 290.36955186 -0.3366498 294.30787468 -0.35605907 C297.91671283 -0.37369068 301.5250591 -0.37269349 305.13390248 -0.35716178 C307.05080806 -0.35366406 308.9677188 -0.36981218 310.8845526 -0.38676625 C320.99625229 -0.31142484 328.30754667 2.16974502 335.77176476 9.06781483 C340.73088979 14.78323344 343.93239326 22.00474537 343.42014122 29.60234547 C343.3371029 30.93912436 343.3371029 30.93912436 343.25238705 32.3029089 C343.15514796 33.7603618 343.15514796 33.7603618 343.05594444 35.24725819 C335.63620625 99.37653038 335.63620625 99.37653038 355.82035255 157.10468578 C359.15967341 160.81013785 362.77350842 164.09891218 366.62723351 167.25922108 C367.14827156 167.68661957 367.66930962 168.11401806 368.2061367 168.55436802 C374.21930144 173.40603312 380.50726278 177.58225546 387.12360191 181.55054188 C390.95036169 184.03314457 394.25084545 187.01487805 397.56473351 190.13422108 C398.19086037 190.71302021 398.81698723 191.29181934 399.46208763 191.88815784 C406.11585958 198.11603522 413.00010308 206.06948306 413.75284863 215.48794484 C413.83481713 218.4238961 413.85045501 221.35388036 413.84561729 224.29098988 C413.85453066 225.98269552 413.85453066 225.98269552 413.8636241 227.70857704 C413.88097563 231.48997411 413.88401267 235.27124438 413.88699913 239.05267811 C413.89518392 241.76312981 413.90626583 244.47356824 413.91708946 247.18401051 C413.94421473 254.54992191 413.95629924 261.91581148 413.96511078 269.28176451 C413.97064299 273.88472706 413.97911907 278.48768126 413.98811913 283.09063816 C414.01249974 295.84515638 414.03309886 308.59966793 414.03986931 321.35420895 C414.04030844 322.17000779 414.04074757 322.98580664 414.04120001 323.82632666 C414.04163657 324.64403314 414.04207312 325.46173962 414.04252291 326.30422509 C414.04340983 327.96109875 414.04430295 329.61797242 414.04520226 331.27484608 C414.04564511 332.09670563 414.04608797 332.91856519 414.04654425 333.76532958 C414.05443599 347.0747539 414.08933302 360.38395894 414.1359213 373.69329859 C414.18341165 387.3712253 414.2082759 401.04904212 414.21060514 414.72705257 C414.2124352 422.40135038 414.22385205 430.07536248 414.26024437 437.74958134 C414.29113238 444.28593114 414.30123734 450.82190694 414.28476816 457.3583159 C414.27698424 460.68983396 414.28196639 464.01999127 414.30688286 467.35151577 C414.49526888 494.11631826 414.49526888 494.11631826 405.94129753 504.01236629 C404.24078458 505.64521444 402.56047097 506.88482895 400.56473351 508.13422108 C400.01375118 508.49716455 399.46276886 508.86010803 398.8950901 509.2340498 C390.85378397 513.58524736 381.68703391 512.71032358 372.81375694 512.68353748 C370.90922817 512.69224054 369.00470639 512.70260979 367.10019493 512.71451283 C361.94758446 512.74121013 356.79526809 512.74246031 351.64260197 512.73738623 C347.33800922 512.73524275 343.03347549 512.74502304 338.72889543 512.75459707 C328.5774499 512.77675534 318.42615243 512.77767802 308.27469444 512.76556873 C297.80149457 512.75346815 287.32883064 512.7781712 276.85572219 512.82070887 C267.85762537 512.85591181 258.85969943 512.86794889 249.86153626 512.86143339 C244.48964419 512.85780519 239.11813517 512.86310578 233.74630547 512.89086246 C228.6997567 512.91596606 223.65404701 512.91218332 218.60751152 512.88604069 C216.75516034 512.88129953 214.90275053 512.88681325 213.05046654 512.90328693 C210.52280946 512.92414848 207.99798816 512.90809217 205.47043419 512.88266468 C204.7362935 512.89741325 204.00215282 512.91216182 203.24576545 512.92735732 C200.41569381 512.86738812 198.20994969 512.67140792 195.99015284 510.82327437 C193.65162461 508.10292242 191.86350131 505.79336663 191.93973351 502.13422108 C191.92684288 501.51547108 191.91395226 500.89672108 191.90067101 500.25922108 C192.9512598 496.89733693 194.91755446 494.39028215 197.56473351 492.13422108 C200.94424725 491.38031673 200.94424725 491.38031673 204.88561058 491.37473011 C205.61267147 491.36552001 206.33973236 491.35630991 207.0888254 491.34682071 C209.52009248 491.32326398 211.94912785 491.34233649 214.38040733 491.36127186 C216.12497894 491.35310034 217.86953991 491.34229752 219.61408043 491.32906055 C224.34732445 491.30060529 229.0798733 491.30898269 233.81315255 491.32392836 C238.76066827 491.33330164 243.70801357 491.30886394 248.65547752 491.28799915 C258.0228989 491.25363849 267.39007622 491.24972451 276.75754803 491.25672424 C287.42258974 491.26321299 298.08745974 491.23579781 308.75245059 491.20552182 C330.6898972 491.1440056 352.62721002 491.12510804 374.56473351 491.13422108 C287.77583273 378.63493146 287.77583273 378.63493146 168.2587719 315.90736866 C164.68670873 315.71050208 161.14204851 315.63422108 157.56473351 315.63422108 C156.39092628 315.63422108 155.21711906 315.63422108 154.00774193 315.63422108 C95.29123517 316.88949528 48.42909119 374.27642971 10.93973351 413.13422108 C-13.29240733 438.43078083 -36.595027 464.57959637 -59.43526649 491.13422108 C-58.52766484 491.13476584 -57.62006319 491.13531061 -56.68495846 491.13587189 C-34.61004216 491.15083338 -12.53532797 491.19325467 9.53947544 491.26631165 C20.21466613 491.30097787 30.88972747 491.32631931 41.56497765 491.32977772 C50.8685775 491.33281534 60.17194708 491.3532786 69.47545797 491.39474565 C74.40253388 491.41609568 79.32928227 491.42866596 84.25640488 491.42037487 C88.89324516 491.41284742 93.52942112 491.42860411 98.1661396 491.46228123 C99.86849256 491.4705303 101.57091138 491.47024585 103.27325821 491.46081829 C105.59757627 491.44921985 107.91970847 491.46827458 110.24385643 491.49498463 C111.54450633 491.49775001 112.84515623 491.50051538 114.18521976 491.50336456 C118.44923119 492.29933096 119.91391701 493.76565524 122.56473351 497.13422108 C123.77517247 501.29510501 123.84885252 503.38130568 122.31473351 507.44672108 C120.56473351 510.13422108 120.56473351 510.13422108 117.56473351 512.13422108 C114.98109377 512.33601738 112.504228 512.42117442 109.91972923 512.41510487 C109.13342359 512.42104711 108.34711795 512.42698936 107.53698486 512.43311167 C104.89327824 512.45050114 102.2497526 512.45350345 99.60599327 512.4564867 C97.71371129 512.46574241 95.82143305 512.47579165 93.92915916 512.48657703 C88.77993642 512.51284559 83.63076586 512.52572025 78.48148656 512.53459835 C75.26233547 512.5404598 72.04319864 512.54866966 68.82405472 512.5576067 C58.74653328 512.58496923 48.66904444 512.60429328 38.59148842 512.61201048 C26.97003916 512.62095909 15.34906188 512.65599037 3.72775608 512.71401167 C-5.26011309 512.75732134 -14.2478499 512.77742326 -23.23582226 512.78009272 C-28.60079684 512.78218446 -33.96532815 512.79390431 -39.33019257 512.82973194 C-44.38402089 512.86282324 -49.43707601 512.86694281 -54.49097443 512.84945393 C-56.33878597 512.84791972 -58.18664015 512.85651218 -60.03434563 512.87637043 C-71.56171119 512.99292113 -81.10982976 512.36803319 -90.34298801 504.5107851 C-97.4109907 497.01315877 -99.02840499 488.57930506 -98.94320107 478.59650135 C-98.94944103 477.46401762 -98.95568099 476.33153388 -98.96211004 475.16473246 C-98.97801263 471.38546743 -98.96544574 467.6068498 -98.95284462 463.82758045 C-98.95606731 461.1118128 -98.965246 458.39607228 -98.97408485 455.68031788 C-98.99183533 449.07906686 -98.98804567 442.47799815 -98.97643429 435.8767401 C-98.96738652 430.50993046 -98.96618177 425.14317178 -98.97052956 419.7763567 C-98.97114249 419.01139955 -98.97175542 418.2464424 -98.97238693 417.45830473 C-98.97366588 415.90412111 -98.97496273 414.34993749 -98.97627729 412.7957539 C-98.98767292 398.23538198 -98.9745854 383.67511094 -98.95307583 369.11475557 C-98.93520575 356.631773 -98.93831014 344.14893924 -98.95675087 331.66595936 C-98.9781756 317.15631903 -98.98657437 302.64676703 -98.97430182 288.13711309 C-98.97302767 286.58877056 -98.97177019 285.04042802 -98.97052956 283.49208546 C-98.96991245 282.73034821 -98.96929535 281.96861097 -98.96865955 281.18379077 C-98.96521145 275.8258305 -98.97102332 270.46792643 -98.98044777 265.10997486 C-98.99168698 258.5769394 -98.98858752 252.04409609 -98.96732479 245.51108253 C-98.95683977 242.18018485 -98.95481515 238.84987104 -98.9659214 235.5189352 C-98.97686578 231.90295219 -98.96312474 228.28786677 -98.94320107 224.6719408 C-98.95212395 223.62650278 -98.96104684 222.58106475 -98.97024012 221.50394678 C-98.78254123 203.91861197 -85.56728379 192.94678314 -73.88106728 181.37421131 C-71.93367938 179.44514889 -69.99448251 177.50813499 -68.05636024 175.56976795 C-66.79771683 174.31603955 -65.53861759 173.06276856 -64.27901649 171.81000233 C-63.42708717 170.95974224 -63.42708717 170.95974224 -62.55794716 170.09230518 C-59.73336994 167.30024541 -56.85944182 164.59118106 -53.86837196 161.97775745 C-52.81813976 161.05674039 -52.81813976 161.05674039 -51.74669075 160.11711693 C-50.16599451 158.76108892 -48.56459406 157.4289263 -46.94629097 156.11800766 C-33.23195937 144.95358745 -33.23195937 144.95358745 -27.29251289 128.90607071 C-27.01765153 123.19865151 -27.1708359 117.55501802 -27.40401649 111.84906483 C-27.42911834 109.37059069 -27.44468074 106.89200367 -27.45125771 104.41341114 C-27.49091574 97.94512658 -27.64636447 91.48514937 -27.83156776 85.01959705 C-28.07130185 75.89276928 -28.15022135 66.76286601 -28.24788857 57.63362598 C-28.30015091 52.78593497 -28.39585617 47.94226205 -28.52791786 43.09611988 C-28.5733667 40.87697135 -28.61866284 38.65781969 -28.66378212 36.43866444 C-28.70023338 35.45299992 -28.73668465 34.4673354 -28.77424049 33.45180225 C-28.94095334 23.03093332 -25.80373548 14.54480362 -18.59542274 7.01312733 C-13.20085095 2.32092293 -7.11616096 0.01293086 0 0 Z M-6.3228817 25.21829319 C-7.91702352 29.39706532 -8.0603381 33.34596145 -8.23342323 37.78906727 C-8.28184829 38.76836571 -8.33027334 39.74766414 -8.38016582 40.75663829 C-8.53747266 44.04378205 -8.67306354 47.33141248 -8.80733681 50.61957264 C-8.91292448 52.97788363 -9.01883882 55.33618002 -9.12505531 57.69446278 C-10.07029215 79.44195902 -10.61349162 101.20197893 -11.04945183 122.96494389 C-11.10920499 125.89411564 -11.17015806 128.82325974 -11.23214149 131.75238514 C-11.24749517 132.48016115 -11.26284884 133.20793715 -11.27866778 133.95776698 C-11.51561895 144.88051912 -11.95343016 155.78270766 -12.50362587 166.69379139 C-13.34257377 183.55171736 -13.86802392 200.39487546 -13.88839149 217.27484608 C-13.88983469 217.95597013 -13.89127788 218.63709419 -13.89276481 219.33885837 C-13.92265868 255.3182936 -10.04044133 283.65933707 16.12119102 310.16882801 C28.84823212 322.51575747 42.7536667 333.41052267 57.56473351 343.13422108 C58.67474627 342.19131143 59.78353649 341.24696249 60.89182091 340.30202198 C61.50941151 339.77629502 62.12700211 339.25056807 62.76330757 338.70890999 C65.28002041 336.50896397 67.6166635 334.15815819 69.95535851 331.77093983 C70.92137704 330.79229853 71.8875265 329.81378645 72.85379601 328.83539295 C74.34561547 327.31861097 75.83575093 325.80023773 77.32352257 324.27948475 C78.77977847 322.79310759 80.24213056 321.31294933 81.70535851 319.83343983 C82.56677452 318.95518543 83.42819054 318.07693104 84.31571007 317.17206287 C87.77465664 314.03790883 90.56508309 314.00722032 95.05493736 313.99377918 C96.76677208 313.98521397 96.76677208 313.98521397 98.51318932 313.97647572 C99.7662487 313.97535786 101.01930809 313.97424 102.31033897 313.97308826 C103.62923119 313.96812336 104.9481234 313.96315845 106.30698204 313.9580431 C109.92685888 313.94492606 113.54671717 313.93847562 117.16661406 313.93403244 C119.42822042 313.93110087 121.68982173 313.92699593 123.95142555 313.92252827 C131.02767885 313.90885579 138.10392056 313.89918765 145.18018615 313.89532638 C153.34849209 313.89084467 161.51663078 313.87329063 169.68488586 313.84432578 C175.99920078 313.8227122 182.31346862 313.81262229 188.62782013 313.81128526 C192.39899 313.81023708 196.17000258 313.8043267 199.9411335 313.78646564 C203.48866564 313.76999022 207.03592217 313.76782671 210.58347893 313.77660465 C212.50407984 313.77774244 214.42467158 313.76402135 216.34522057 313.74985218 C217.49208336 313.75542133 218.63894615 313.76099049 219.82056236 313.7667284 C220.81496771 313.76526184 221.80937305 313.76379528 222.8339119 313.76228428 C227.27818363 314.36759229 230.4211907 316.73310642 233.51907921 319.861516 C234.29932205 320.64198544 234.29932205 320.64198544 235.09532738 321.43822193 C235.63823921 321.99145634 236.18115105 322.54469074 236.74051476 323.11468983 C237.31053719 323.68754215 237.88055962 324.26039448 238.46785545 324.85060596 C240.27575729 326.66964461 242.07655469 328.49553485 243.87723351 330.32172108 C245.10658762 331.56111338 246.33640059 332.80005073 247.56668663 334.03851795 C250.57137281 337.06517823 253.56970974 340.09800029 256.56473351 343.13422108 C257.88108032 341.92707699 257.88108032 341.92707699 259.22402 340.69554615 C262.54397595 337.83988655 266.04110053 335.45645854 269.71294212 333.07326221 C293.13436025 317.69884791 319.04854995 296.93076098 325.16044724 268.24299014 C328.08781443 251.61629072 328.47680032 234.73825259 328.46707726 217.89593983 C328.46704077 217.21517283 328.46700428 216.53440584 328.46696669 215.83300954 C328.44915301 198.88654191 327.90135934 181.96878046 327.13797219 165.04124142 C326.64392256 154.08098959 326.3063584 143.12699385 326.10745811 132.15741444 C326.0875995 131.06563075 326.0875995 131.06563075 326.06733971 129.95179083 C326.01464114 127.0242916 325.96290997 124.09677749 325.91245758 121.16923867 C325.52720685 98.88582566 325.00973188 76.60245129 324.09647369 54.33391857 C324.00327305 52.02261226 323.91617128 49.71105081 323.83559227 47.39927006 C323.72342074 44.24829116 323.58690013 41.09935379 323.44277 37.94969654 C323.41417631 37.03468158 323.38558261 36.11966662 323.35612243 35.17692393 C323.0743645 29.79956642 322.36446608 26.2474315 318.56473351 22.13422108 C313.02751389 19.09111938 306.274199 19.85388435 300.12151146 19.87352467 C298.85542264 19.86969912 297.58933382 19.86587357 296.28487867 19.8619321 C292.77742993 19.85165193 289.27008341 19.85383394 285.76262629 19.85811269 C281.97727521 19.86057987 278.19194874 19.85156589 274.40660667 19.8440752 C266.99352293 19.83132618 259.58047541 19.82953474 252.16738255 19.83187547 C246.14212345 19.83365847 240.11687536 19.83190937 234.09161758 19.82765102 C233.2340896 19.82705583 232.37656162 19.82646065 231.49304793 19.82584742 C229.75098725 19.82463567 228.00892658 19.82342154 226.2668659 19.82220504 C209.93017405 19.81132883 193.59350284 19.81349245 177.25680982 19.81958989 C162.31128505 19.82475977 147.36582543 19.81350187 132.42031354 19.79449167 C117.07338521 19.77512054 101.72648771 19.76685596 86.37954706 19.77061492 C77.76373903 19.77252799 69.14798648 19.77002912 60.53218842 19.75590038 C53.19793903 19.74399489 45.86377928 19.74257238 38.52952868 19.75469055 C34.78789418 19.76058495 31.04642368 19.76166326 27.30480003 19.74968815 C23.24804937 19.73685537 19.19169011 19.74728031 15.13493919 19.75999928 C13.95322783 19.75262499 12.77151647 19.74525071 11.55399567 19.73765296 C1.61656606 19.76017182 1.61656606 19.76017182 -6.3228817 25.21829319 Z M-31.1879673 169.76666737 C-32.33047195 170.91250294 -32.33047195 170.91250294 -33.49605751 172.0814867 C-34.35687431 172.94237904 -35.21769112 173.80327137 -36.10459328 174.69025135 C-37.0495062 175.64027178 -37.99436472 176.59034632 -38.93917274 177.54047108 C-39.90159654 178.50475895 -40.86424063 179.46882699 -41.82709694 180.43268299 C-44.36597478 182.97538677 -46.90183592 185.52107885 -49.43709755 188.06738758 C-52.0225757 190.66307822 -54.61087197 193.25595529 -57.19893837 195.84906483 C-62.28048958 200.94135471 -67.35885975 206.03680221 -72.43526649 211.13422108 C-70.96510713 214.53079513 -69.07164489 216.74592425 -66.46041298 219.35199451 C-65.6429409 220.17254322 -64.82546883 220.99309193 -63.98322487 221.83850574 C-63.09985954 222.71468555 -62.21649422 223.59086536 -61.30636024 224.49359608 C-60.40152397 225.39797413 -59.4966877 226.30235218 -58.56443214 227.23413563 C-56.65268489 229.14286307 -54.73916662 231.04957725 -52.82222939 232.95306873 C-50.35995188 235.39829672 -47.90436911 237.85011658 -45.45098209 240.30426121 C-43.11389935 242.64100762 -40.77258092 244.97349659 -38.43136024 247.30609608 C-37.54597069 248.19037281 -36.66058113 249.07464954 -35.74836159 249.98572254 C-34.52688171 251.19763264 -34.52688171 251.19763264 -33.28072548 252.43402576 C-32.5606179 253.15032154 -31.84051033 253.86661732 -31.09858131 254.60461903 C-29.68920621 256.24703796 -29.68920621 256.24703796 -28.43526649 256.13422108 C-28.43526649 227.09422108 -28.43526649 198.05422108 -28.43526649 168.13422108 C-29.71250079 168.02062816 -29.71250079 168.02062816 -31.1879673 169.76666737 Z M343.56473351 168.13422108 C343.56473351 197.17422108 343.56473351 226.21422108 343.56473351 256.13422108 C349.31759952 251.22319978 349.31759952 251.22319978 354.75589561 246.05658436 C355.49613472 245.31626972 356.23637383 244.57595509 356.99904442 243.81320667 C357.77224525 243.03484455 358.54544609 242.25648243 359.34207726 241.45453358 C360.15342628 240.6417696 360.96477531 239.82900562 361.80071068 238.99161243 C364.3702594 236.41650369 366.93629318 233.83792488 369.50223351 231.25922108 C371.25265279 229.50378162 373.00330151 227.74857091 374.75418663 225.99359608 C379.02702652 221.70978025 383.29699249 217.42311635 387.56473351 213.13422108 C386.09457414 209.73764702 384.2011119 207.5225179 381.58987999 204.91644764 C380.77240791 204.09589893 379.95493584 203.27535023 379.11269188 202.42993641 C378.22932655 201.5537566 377.34596123 200.67757679 376.43582726 199.77484608 C375.53099098 198.87046803 374.62615471 197.96608997 373.69389915 197.03430653 C371.7821519 195.12557909 369.86863363 193.21886491 367.9516964 191.31537342 C365.48941889 188.87014544 363.03383612 186.41832557 360.5804491 183.96418095 C358.24336636 181.62743454 355.90204793 179.29494556 353.56082726 176.96234608 C352.6754377 176.07806934 351.79004814 175.19379261 350.8778286 174.28271961 C350.06350868 173.47477955 349.24918877 172.66683949 348.41019249 171.83441639 C347.33003113 170.75997272 347.33003113 170.75997272 346.22804832 169.66382313 C344.81867322 168.02140419 344.81867322 168.02140419 343.56473351 168.13422108 Z M-78.43526649 238.13422108 C-78.43526649 317.33422108 -78.43526649 396.53422108 -78.43526649 478.13422108 C-74.20589943 474.50904931 -70.25170848 471.07337758 -66.36129189 467.15790272 C-65.90494865 466.70009922 -65.44860542 466.24229572 -64.97843361 465.77061939 C-64.00124909 464.78966966 -63.02521959 463.80756815 -62.0502739 462.82439327 C-60.4999314 461.26111061 -58.94633237 459.70112788 -57.39191628 458.14189625 C-53.53351048 454.27022744 -49.68059504 450.39311004 -45.82753944 446.51611805 C-42.56284769 443.2315656 -39.29602599 439.94915882 -36.02645111 436.66946697 C-34.50901664 435.14563396 -32.99466888 433.61878096 -31.48044777 432.09175587 C-27.61446782 428.20547967 -23.76145584 424.34232395 -19.5873661 420.78412342 C-13.38343771 415.4659161 -7.72823782 409.54957248 -1.96651649 403.76312733 C-0.67779578 402.47253823 0.61114835 401.18217218 1.90030479 399.89201832 C5.26931179 396.51921924 8.63530305 393.14342646 12.00064659 389.76697254 C15.44464973 386.31268363 18.891536 382.86127423 22.33817101 379.4096117 C29.08316189 372.65394194 35.82496608 365.89510174 42.56473351 359.13422108 C37.23562401 352.66750749 31.35953803 346.78758186 25.43460655 340.87469959 C24.31199896 339.75073504 23.18960379 338.62655828 22.06740379 337.50218678 C19.03705923 334.46730616 16.00358789 331.43556945 12.96938491 328.40454698 C9.79196913 325.22967088 6.61700277 322.05234678 3.44164085 318.87541676 C-1.88345172 313.54850878 -7.21064111 308.22370457 -12.53902626 302.90009022 C-18.70650791 296.73806676 -24.87035622 290.57242645 -31.03236228 284.40492779 C-36.32488563 279.10787536 -41.61934397 273.8127629 -46.91544312 268.51928562 C-50.07819802 265.35809248 -53.24026675 262.19622095 -56.4005928 259.03259945 C-59.36553016 256.0647858 -62.3328793 253.0994054 -65.30215454 250.13593197 C-66.39431524 249.04509946 -67.48561489 247.95340411 -68.57601357 246.86081028 C-70.05755568 245.37655938 -71.54210462 243.89538528 -73.02750587 242.41499805 C-73.85946637 241.58341458 -74.69142687 240.75183111 -75.54859829 239.89504814 C-77.12699388 238.02050355 -77.12699388 238.02050355 -78.43526649 238.13422108 Z M390.5676012 240.00830555 C389.68360173 240.89322681 388.79960226 241.77814808 387.88881493 242.68988514 C387.39793422 243.17991142 386.90705351 243.66993771 386.40129763 244.17481327 C384.74366847 245.83078466 383.08965765 247.49032467 381.43558311 249.14984608 C380.25339931 250.33231172 379.07099573 251.51455767 377.88838768 252.69659901 C374.66729777 255.91740079 371.4493107 259.14128699 368.23184848 262.36571217 C364.87303606 265.73075566 361.51141095 269.09298683 358.15007591 272.45551014 C351.78031502 278.82838508 345.41310855 285.20380591 339.04680306 291.58013248 C331.80099793 298.83709648 324.55236925 306.09123731 317.30349529 313.34513569 C302.38741806 328.27167896 287.47491209 343.20178579 272.56473351 358.13422108 C276.29990684 362.58870035 280.1409696 366.85688326 284.25955772 370.95843983 C284.79378349 371.49441792 285.32800926 372.030396 285.87842369 372.58261585 C287.62293819 374.33148599 289.37103121 376.07672583 291.11942101 377.82172108 C292.34736015 379.05033517 293.57515093 380.27909756 294.80280113 381.50800037 C297.36814575 384.07481355 299.9352752 386.63982441 302.50369835 389.20355701 C305.77727192 392.47143989 309.04634276 395.74378438 312.31407547 399.0175066 C314.84659854 401.55366324 317.38152334 404.0874086 319.91715431 406.62045765 C321.12261807 407.82525955 322.32735395 409.03079022 323.53131294 410.23709583 C329.05163988 415.76582021 334.56835792 421.22574815 340.51206017 426.30392933 C344.72791065 430.06304492 348.66281661 434.12554315 352.63980484 438.13412762 C354.28072835 439.78797103 355.92489289 441.43853257 357.56987572 443.0883379 C361.05017611 446.57996984 364.52647511 450.07556856 368.00223351 453.57172108 C372.05642936 457.64952256 376.11225115 461.72567992 380.1722641 465.79769039 C381.79467394 467.42659683 383.41405499 469.05847436 385.03334618 470.69048023 C386.01819023 471.67895313 387.00317288 472.66728796 387.98831749 473.65546131 C388.85021187 474.52259251 389.71210625 475.3897237 390.60011864 476.2831316 C392.23615323 478.24851531 392.23615323 478.24851531 393.56473351 478.13422108 C393.56473351 398.93422108 393.56473351 319.73422108 393.56473351 238.13422108 C392.22981151 238.02017348 392.22981151 238.02017348 390.5676012 240.00830555 Z " fill="#000000" transform="translate(98.43526649475098,-0.13422107696533203)"/>
<path d="M0 0 C2.875 1.25 2.875 1.25 5 4 C8.10794909 13.6080794 9.6802848 23.85871016 11.6875 33.75 C12.01082797 35.33338231 12.33439411 36.916716 12.65820312 38.5 C13.4415429 42.33277965 14.22167822 46.16619834 15 50 C15.16429001 49.44733963 15.32858002 48.89467926 15.49784851 48.32527161 C17.21498035 42.5604799 18.95440973 36.80275727 20.70678711 31.04858398 C21.35736031 28.90187058 22.00227882 26.75343485 22.64135742 24.60327148 C23.5623879 21.50812244 24.50375615 18.41979198 25.44921875 15.33203125 C25.72964523 14.37351761 26.01007172 13.41500397 26.29899597 12.42744446 C27.98497525 7.00318852 29.47058238 3.52732201 34 0 C36.5 -0.6640625 36.5 -0.6640625 39 -0.625 C39.825 -0.63789062 40.65 -0.65078125 41.5 -0.6640625 C45.00254027 0.26629976 46.92829913 2.12918914 49 5 C50.5001728 8.35208063 51.52069049 11.81112256 52.55078125 15.33203125 C52.85445114 16.32377853 53.15812103 17.31552582 53.47099304 18.33732605 C54.43305865 21.4914218 55.3730113 24.65161467 56.3125 27.8125 C56.96274254 29.95812231 57.61441955 32.10331045 58.26757812 34.24804688 C59.86170312 39.49378246 61.43774767 44.74468985 63 50 C63.10387024 49.45986771 63.20774048 48.91973541 63.3147583 48.36323547 C64.40090594 42.73059282 65.50732839 37.10220334 66.62548828 31.47583008 C67.03986105 29.37691374 67.44909282 27.27697553 67.85302734 25.17602539 C68.43531869 22.15225941 69.03614024 19.13267853 69.640625 16.11328125 C69.81684387 15.17664139 69.99306274 14.24000153 70.17462158 13.27497864 C71.20488589 8.23183426 72.19181264 4.71744906 76 1 C79.47263273 -0.73631636 83.21193013 -0.60190402 87 0 C89.75569447 2.18159145 91.43588747 3.87177494 93 7 C92.95961245 16.49448841 90.62301241 25.98887366 88.796875 35.26953125 C88.63854439 36.07939672 88.48021378 36.8892622 88.31708527 37.72366905 C87.48118881 41.99827416 86.63871646 46.27151887 85.79052734 50.54370117 C84.91908207 54.9396063 84.07011058 59.33954301 83.22611618 63.74078846 C82.56919362 67.14481965 81.89591707 70.54546809 81.2181778 73.94540977 C80.89795579 75.56644752 80.58381013 77.1886985 80.27602386 78.81214333 C79.84418069 81.08145913 79.38929948 83.34501121 78.92871094 85.60864258 C78.67635681 86.8945076 78.42400269 88.18037262 78.16400146 89.50520325 C76.75043122 93.74930503 75.08463029 95.79702644 72 99 C69.60961794 100.19519103 67.91758604 100.26991328 65.25 100.375 C64.40953125 100.42398438 63.5690625 100.47296875 62.703125 100.5234375 C58.84021079 99.77541654 56.43412134 97.98934817 54 95 C52.47051822 91.98138248 51.51657857 88.86532351 50.5625 85.625 C50.13698853 84.2649585 50.13698853 84.2649585 49.70288086 82.87744141 C49.10009202 80.93998849 48.50668529 78.99959587 47.921875 77.05664062 C46.96994313 73.90034111 45.98779489 70.75462114 45 67.609375 C44.35282658 65.53166694 43.70695969 63.4535514 43.0625 61.375 C42.75578369 60.38580566 42.44906738 59.39661133 42.13305664 58.37744141 C41.71334595 56.99564697 41.71334595 56.99564697 41.28515625 55.5859375 C41.03644775 54.7717334 40.78773926 53.9575293 40.53149414 53.11865234 C40 51 40 51 40 48 C39.34 48 38.68 48 38 48 C37.88376785 48.55057571 37.76753571 49.10115143 37.64778137 49.66841125 C35.96106446 57.47922239 33.72926117 65.08331431 31.42407227 72.73022461 C30.93198589 74.37187172 30.44632855 76.01545933 29.96704102 77.66088867 C29.26700407 80.06357608 28.54781791 82.45978642 27.82421875 84.85546875 C27.61568771 85.5837236 27.40715668 86.31197845 27.19230652 87.06230164 C25.65356849 92.04668872 23.62049835 95.2242704 20 99 C17.60961794 100.19519103 15.91758604 100.26991328 13.25 100.375 C12.40953125 100.42398438 11.5690625 100.47296875 10.703125 100.5234375 C6.92745741 99.79231112 4.5059857 97.81405025 2 95 C0.652771 91.56680298 0.652771 91.56680298 -0.17285156 87.67431641 C-0.32787266 86.97312494 -0.48289375 86.27193348 -0.64261246 85.54949379 C-1.11818109 83.37049533 -1.56085606 81.18659502 -2 79 C-2.27807864 77.68919439 -2.55761125 76.37869622 -2.83874512 75.06854248 C-3.66819539 71.12154857 -4.45759039 67.16852456 -5.234375 63.2109375 C-5.51993414 61.76840574 -5.80568458 60.32591183 -6.09161377 58.88345337 C-6.68245617 55.89760479 -7.27027125 52.91118057 -7.85595703 49.92431641 C-8.60463683 46.10811341 -9.36228956 42.29375222 -10.12228012 38.47978783 C-10.71135183 35.51740197 -11.29513327 32.55399209 -11.877388 29.59025955 C-12.15470877 28.18257531 -12.43378753 26.77523615 -12.71471405 25.36826706 C-13.10531361 23.40853935 -13.48787961 21.44721567 -13.87011719 19.48583984 C-14.08899597 18.37493988 -14.30787476 17.26403992 -14.53338623 16.11947632 C-15.27284005 11.1759688 -15.62689063 8.10750678 -13.125 3.6875 C-9.47388559 -0.93008587 -5.56846657 -0.62729693 0 0 Z " fill="#000000" transform="translate(149,78)"/>
<path d="M0 0 C0.75925781 -0.04898438 1.51851563 -0.09796875 2.30078125 -0.1484375 C8.33461894 1.17485914 11.98427347 8.36442932 15.3125 13.1875 C15.83392578 13.93451172 16.35535156 14.68152344 16.89257812 15.45117188 C20.76680388 21.01188043 24.60355626 26.59884983 28.43081665 32.19197083 C31.92047744 37.28429034 35.46568639 42.33561187 39.03125 47.375 C39.85254395 48.53708984 39.85254395 48.53708984 40.69042969 49.72265625 C42.02233125 51.60709339 43.35469401 53.49120249 44.6875 55.375 C44.69114563 54.77222733 44.69479126 54.16945465 44.69854736 53.54841614 C44.74038392 47.27008622 44.80973768 40.99248657 44.89501953 34.71459961 C44.92323113 32.37222602 44.94444468 30.02975719 44.95849609 27.68725586 C44.97992224 24.31835161 45.02657316 20.95059263 45.078125 17.58203125 C45.07935364 16.53602249 45.08058228 15.49001373 45.08184814 14.41230774 C45.228317 7.12817497 45.228317 7.12817497 47.60058594 3.23706055 C51.12843259 0.08931997 53.83006448 -0.01397704 58.42578125 0.015625 C62.01270929 0.58556866 63.55588894 2.57726049 65.6875 5.375 C67.24680807 8.49361615 66.84366485 11.80977659 66.84863281 15.23364258 C66.85608017 16.45098335 66.85608017 16.45098335 66.86367798 17.69291687 C66.87831561 20.38513021 66.88510463 23.07728461 66.890625 25.76953125 C66.89637561 27.63799542 66.90213335 29.50645958 66.90789795 31.37492371 C66.91841282 35.2965828 66.92425215 39.21822136 66.92773438 43.13989258 C66.93321688 48.16379633 66.95723764 53.18742875 66.98570633 58.21124744 C67.00433621 62.07257375 67.00953852 65.9338348 67.01107025 69.79520226 C67.01409706 71.64715748 67.02212653 73.49911156 67.03525543 75.35102272 C67.05232156 77.9436158 67.05043427 80.53554728 67.04394531 83.12817383 C67.0531601 83.8925174 67.06237488 84.65686096 67.0718689 85.44436646 C67.03658722 89.94724617 66.42416549 92.77322507 63.6875 96.375 C60.61051086 99.34588607 57.95254504 100.20774333 53.6875 100.375 C47.23117887 98.40118887 44.6773039 95.4304821 41.0625 89.875 C40.5567041 89.12887451 40.0509082 88.38274902 39.52978516 87.61401367 C38.45430356 86.02519656 37.38594022 84.43154115 36.32421875 82.83349609 C34.14491599 79.5599909 31.92212443 76.31720203 29.69775391 73.07421875 C28.65476757 71.5519383 27.61503194 70.02742199 26.57958984 68.5 C21.73781841 61.37108907 16.71255173 54.37520574 11.6875 47.375 C11.68385437 47.93796783 11.68020874 48.50093567 11.67645264 49.08096313 C11.63455917 54.95396834 11.56516601 60.82619702 11.47998047 66.69873047 C11.4517994 68.88875553 11.43057066 71.07888177 11.41650391 73.26904297 C11.39503523 76.42207527 11.34836325 79.57389485 11.296875 82.7265625 C11.29503204 84.1894017 11.29503204 84.1894017 11.29315186 85.68179321 C11.16800396 91.52392446 10.56911093 94.9166874 6.6875 99.375 C3.23010443 101.10369779 -0.53225568 100.86466895 -4.3125 100.375 C-7.18279869 98.58106332 -8.80381638 97.39236724 -10.3125 94.375 C-10.42657607 91.62509849 -10.48034574 88.89994277 -10.48950195 86.14916992 C-10.49607315 85.29859512 -10.50264435 84.44802032 -10.50941467 83.57167053 C-10.52916696 80.74960243 -10.54081439 77.92758758 -10.55078125 75.10546875 C-10.55485678 74.14267817 -10.5589323 73.17988758 -10.56313133 72.18792152 C-10.58400004 67.0923242 -10.59829844 61.99675388 -10.60766602 56.90112305 C-10.61873376 51.63501096 -10.65313562 46.36932104 -10.69283772 41.10335827 C-10.71896923 37.05673938 -10.72735476 33.01022162 -10.73094749 28.96352577 C-10.73582222 27.02224183 -10.74746132 25.08096266 -10.76598549 23.13976097 C-10.79030391 20.42250387 -10.78942539 17.70634602 -10.7824707 14.98901367 C-10.79528076 14.18726715 -10.80809082 13.38552063 -10.82128906 12.55947876 C-10.78608051 8.78486106 -10.46319564 6.61048511 -8.40812683 3.39912415 C-5.5666928 0.6546397 -3.8603737 0.1686886 0 0 Z " fill="#000000" transform="translate(311.3125,77.625)"/>
<path d="M0 0 C0.81760363 -0.00467997 1.63520725 -0.00935994 2.47758675 -0.01418173 C5.20901988 -0.02611906 7.93995012 -0.01667949 10.67138672 -0.00723267 C12.63295789 -0.01129893 14.59452677 -0.01664111 16.55609131 -0.02316284 C21.87834034 -0.03683571 27.20041486 -0.03153785 32.52266693 -0.02202559 C38.09324106 -0.01442889 43.66380028 -0.02147463 49.234375 -0.02618408 C58.58905723 -0.03164159 67.9436684 -0.02445011 77.29833984 -0.01016235 C88.1126964 0.00616412 98.92688328 0.00087561 109.74123573 -0.01564157 C119.02716334 -0.02925653 128.31303987 -0.03117604 137.59897423 -0.02332556 C143.14464474 -0.01864912 148.6902355 -0.01802346 154.23590088 -0.02793503 C159.44964794 -0.03660251 164.66317628 -0.03058663 169.87689972 -0.01325226 C171.79009895 -0.00928627 173.70331659 -0.01042337 175.61650848 -0.01704025 C178.22863678 -0.02524135 180.84006473 -0.0149516 183.45214844 0 C184.20876833 -0.00669217 184.96538822 -0.01338433 185.74493599 -0.02027929 C190.47044527 0.03216429 193.72695867 0.84989409 197.72607422 3.38095093 C200.116817 6.77426326 200.71569308 8.78922609 200.78857422 12.94345093 C199.49086862 17.14191021 197.47127681 19.24687609 193.72607422 21.38095093 C190.72273112 21.86456827 188.29373497 22.05910714 185.30029297 22.01586914 C184.46635513 22.02366909 183.6324173 22.03146905 182.77320862 22.03950536 C179.98621089 22.059407 177.20058144 22.04366833 174.41357422 22.02792358 C172.41258956 22.03470052 170.41161114 22.04360408 168.41064453 22.05447388 C162.98086246 22.07726456 157.5515555 22.06843164 152.12176514 22.05257845 C146.4390739 22.03991838 140.7564233 22.05165987 135.07373047 22.05950928 C125.53068743 22.0686055 115.98783788 22.05661854 106.44482422 22.0328064 C95.41224156 22.0055953 84.3801209 22.01440948 73.34754944 22.04193842 C63.87476141 22.06462916 54.40211245 22.0678297 44.92930603 22.05474508 C39.27180407 22.04695043 33.61451926 22.04590953 27.95703125 22.06242752 C22.6380857 22.07687235 17.31973571 22.06684986 12.00085449 22.03795624 C10.04896026 22.03134556 8.09701589 22.03324276 6.1451416 22.04426956 C3.4800366 22.05793738 0.81683896 22.04079516 -1.84814453 22.01586914 C-2.62032822 22.02702275 -3.3925119 22.03817636 -4.18809509 22.04966795 C-8.08783481 21.97893406 -10.69719717 21.43874365 -13.73413086 19.05611229 C-16.90348464 15.71783773 -17.3541463 13.95352038 -17.27392578 9.38095093 C-16.02828488 5.57075523 -15.06944776 3.88444009 -11.66995239 1.73288536 C-7.68647228 0.1470898 -4.21702216 -0.03729879 0 0 Z " fill="#000000" transform="translate(164.27392578125,214.61904907226563)"/>
<path d="M0 0 C0.9271431 -0.0049649 1.85428619 -0.00992981 2.80952454 -0.01504517 C5.88108051 -0.02966709 8.95258484 -0.03646896 12.02416992 -0.04199219 C14.15785219 -0.04774374 16.29153444 -0.05350148 18.42521667 -0.05926514 C22.9016443 -0.0697753 27.37805396 -0.07561783 31.85449219 -0.07910156 C37.58784874 -0.0845854 43.32096771 -0.10861115 49.05424976 -0.13707352 C53.46291292 -0.15570611 57.87151892 -0.16090584 62.28021812 -0.16243744 C64.39370713 -0.16546323 66.50719515 -0.17348927 68.62064552 -0.18662262 C71.5793116 -0.20369536 74.53739827 -0.20179971 77.49609375 -0.1953125 C78.36747986 -0.20452728 79.23886597 -0.21374207 80.13665771 -0.22323608 C85.13770438 -0.1889222 88.63576141 0.33188477 92.94213867 3.16113281 C95.02837008 6.29047993 95.30968431 7.40467568 95.44213867 11.03613281 C95.49370117 11.87917969 95.54526367 12.72222656 95.59838867 13.59082031 C94.80098544 16.71398296 93.35096684 18.11732213 90.8557148 20.09629631 C87.16962911 22.14747083 83.28441267 21.84547553 79.16064453 21.79223633 C78.19244278 21.79939163 77.22424103 21.80654694 76.22669983 21.81391907 C73.03630953 21.8307849 69.84732843 21.81141653 66.65698242 21.79003906 C64.43551009 21.79086788 62.21403782 21.79332776 59.99256897 21.79734802 C55.34137469 21.8002045 50.69066237 21.78551764 46.03955078 21.75805664 C40.07844923 21.72395481 34.11820829 21.73000039 28.15706539 21.74871922 C23.57166879 21.75928792 18.98647242 21.75035278 14.40109444 21.7353344 C12.20306556 21.73015255 10.00501578 21.73063441 7.80698967 21.73687935 C4.73561502 21.74233059 1.66547253 21.72195909 -1.40576172 21.69458008 C-2.31343292 21.70110596 -3.22110413 21.70763184 -4.15628052 21.71435547 C-8.31845296 21.6512775 -10.49959494 21.51149379 -14.09861755 19.25279236 C-17.3697072 15.76062565 -17.45068466 13.06229041 -17.41333008 8.42285156 C-16.8445831 4.80412082 -14.9062052 3.28083058 -12.05786133 1.16113281 C-8.04703084 -0.17581068 -4.18268415 0.00532863 0 0 Z " fill="#000000" transform="translate(217.057861328125,261.8388671875)"/>
<path d="M0 0 C2.75569447 2.18159145 4.43588747 3.87177494 6 7 C6.1139818 9.68361263 6.16783634 12.34187279 6.17700195 15.02636719 C6.18357315 15.85582855 6.19014435 16.68528992 6.19691467 17.53988647 C6.21666786 20.29221686 6.22831544 23.04449259 6.23828125 25.796875 C6.24235678 26.73635231 6.2464323 27.67582962 6.25063133 28.64377594 C6.27150181 33.61733278 6.28579866 38.59086195 6.29516602 43.56445312 C6.30622576 48.70043552 6.34061785 53.83598409 6.38033772 58.9718132 C6.40649312 62.92153729 6.41485695 66.87115792 6.41844749 70.820961 C6.42331712 72.7139707 6.43494179 74.60697568 6.45348549 76.49990082 C6.47785164 79.15230062 6.47691654 81.80357706 6.4699707 84.45605469 C6.48278076 85.23550446 6.49559082 86.01495422 6.50878906 86.81802368 C6.45966784 91.97486147 5.39651215 94.90189796 2 99 C-1.45739557 100.72869779 -5.21975568 100.48966895 -9 100 C-11.87029869 98.20606332 -13.49131638 97.01736724 -15 94 C-15.11407607 91.25009849 -15.16784574 88.52494277 -15.17700195 85.77416992 C-15.18357315 84.92359512 -15.19014435 84.07302032 -15.19691467 83.19667053 C-15.21666696 80.37460243 -15.22831439 77.55258758 -15.23828125 74.73046875 C-15.24235678 73.76767817 -15.2464323 72.80488758 -15.25063133 71.81292152 C-15.27150004 66.7173242 -15.28579844 61.62175388 -15.29516602 56.52612305 C-15.30623376 51.26001096 -15.34063562 45.99432104 -15.38033772 40.72835827 C-15.40646923 36.68173938 -15.41485476 32.63522162 -15.41844749 28.58852577 C-15.42332222 26.64724183 -15.43496132 24.70596266 -15.45348549 22.76476097 C-15.47780391 20.04750387 -15.47692539 17.33134602 -15.4699707 14.61401367 C-15.48278076 13.81226715 -15.49559082 13.01052063 -15.50878906 12.18447876 C-15.47358051 8.40986106 -15.15069564 6.23548511 -13.09562683 3.02412415 C-9.23052985 -0.70909592 -5.18001082 -0.82307598 0 0 Z " fill="#000000" transform="translate(276,78)"/>
<path d="M0 0 C3.125 1.875 3.125 1.875 5 5 C5.98876625 10.02622846 5.7769173 13.70513784 3.125 18.125 C-1.29486216 20.7769173 -4.97377154 20.98876625 -10 20 C-13.125 18.125 -13.125 18.125 -15 15 C-15.98876625 9.97377154 -15.7769173 6.29486216 -13.125 1.875 C-8.70513784 -0.7769173 -5.02622846 -0.98876625 0 0 Z " fill="#000000" transform="translate(261,492)"/>
</svg>
